<?xml version="1.0" standalone="no"?>
<!DOCTYPE svg PUBLIC "-//W3C//DTD SVG 20010904//EN"
 "http://www.w3.org/TR/2001/REC-SVG-20010904/DTD/svg10.dtd">
<svg version="1.0" xmlns="http://www.w3.org/2000/svg"
 width="1993.000000pt" height="3001.000000pt" viewBox="0 0 1993.000000 3001.000000"
 preserveAspectRatio="xMidYMid meet">
<metadata>
Created by potrace 1.16, written by Peter Selinger 2001-2019
</metadata>
<g transform="translate(0.000000,3001.000000) scale(0.100000,-0.100000)"
fill="#000000" stroke="none">
<path d="M10790 22700 c0 -5 9 -10 20 -10 11 0 20 -4 20 -10 0 -14 -34 -12
-48 2 -10 10 -15 10 -22 -2 -7 -12 -13 -12 -33 -1 -23 12 -44 12 -222 -4 -22
-2 -65 -4 -95 -5 -63 -2 -160 -26 -160 -40 0 -10 28 -3 49 14 10 8 12 6 9 -9
-2 -15 -13 -21 -43 -22 -71 -4 -115 -15 -108 -26 4 -6 1 -7 -6 -2 -7 4 -22 -2
-36 -15 -13 -12 -28 -19 -34 -16 -6 4 -21 0 -33 -8 -23 -15 -82 -29 -170 -41
-34 -4 -48 -11 -48 -22 0 -10 -6 -13 -16 -9 -9 3 -44 -7 -77 -23 -34 -15 -70
-31 -79 -34 -12 -4 -16 -13 -12 -24 5 -15 4 -16 -5 -3 -9 13 -18 11 -65 -14
-30 -16 -85 -52 -123 -81 -38 -28 -94 -66 -126 -84 -31 -18 -57 -36 -57 -39 0
-4 -18 -18 -40 -31 -22 -14 -38 -26 -37 -27 1 -2 40 8 85 20 45 13 82 20 82
15 0 -5 -10 -11 -22 -14 -96 -22 -131 -27 -187 -30 -35 -2 -66 -7 -70 -13 -3
-5 -28 -12 -54 -16 -51 -8 -112 -30 -137 -50 -15 -12 -77 -33 -114 -38 -11 -2
-20 -11 -22 -20 -3 -21 0 -22 28 -7 11 6 22 8 25 6 3 -3 -14 -15 -36 -26 -41
-19 -42 -19 -36 0 4 13 2 19 -8 19 -8 0 -18 -12 -21 -26 -5 -18 -11 -24 -24
-20 -11 4 -27 -2 -38 -13 -11 -10 -31 -22 -45 -26 -29 -9 -59 -34 -59 -49 0
-7 -12 -19 -27 -28 -27 -16 -34 -18 -52 -18 -5 0 -16 -6 -23 -14 -8 -8 -37
-25 -65 -40 -28 -14 -78 -52 -111 -84 -32 -33 -64 -61 -69 -63 -20 -7 -113
-117 -113 -132 0 -9 -5 -19 -10 -22 -6 -4 -8 -10 -5 -15 2 -4 -4 -18 -14 -32
-11 -13 -24 -42 -30 -65 -8 -29 -26 -54 -64 -88 -46 -41 -25 -39 26 3 16 14
17 12 17 -21 0 -21 -5 -37 -11 -37 -5 0 -7 5 -4 10 3 6 1 10 -4 10 -6 0 -11
-9 -11 -19 0 -11 -8 -22 -18 -25 -10 -4 -36 -23 -58 -43 l-39 -36 25 -7 c29
-8 48 -1 29 11 -17 10 16 49 43 49 24 0 23 -8 -4 -31 l-23 -20 24 7 c37 10 21
-16 -24 -40 -36 -18 -39 -18 -50 -2 -8 10 -16 13 -19 7 -4 -5 -2 -12 4 -16 18
-11 11 -27 -10 -20 -17 5 -20 2 -20 -20 0 -18 4 -24 13 -19 13 8 -11 -26 -27
-37 -4 -4 -9 -22 -11 -40 -2 -25 -7 -33 -19 -31 -14 3 -22 -15 -17 -41 9 -52
7 -73 -9 -87 -10 -8 -26 -32 -36 -51 -11 -20 -29 -55 -42 -79 -13 -23 -21 -49
-18 -57 5 -12 1 -14 -14 -10 -16 4 -20 2 -15 -12 3 -10 -1 -33 -9 -52 -7 -19
-12 -51 -10 -71 2 -21 -1 -40 -6 -43 -6 -4 -10 6 -10 20 0 33 -15 25 -25 -12
-3 -16 -18 -46 -33 -68 -27 -41 -29 -47 -36 -101 -2 -17 -13 -49 -25 -72 -12
-23 -19 -42 -15 -42 3 0 -2 -7 -10 -16 -20 -19 -21 -38 -2 -31 10 4 13 1 10
-8 -8 -21 -45 -30 -55 -14 -4 7 -11 11 -14 7 -10 -9 26 -40 41 -34 28 11 17
-15 -28 -64 -31 -34 -51 -70 -39 -70 6 0 11 6 11 14 0 16 28 41 36 33 10 -10
-29 -99 -63 -144 -18 -24 -33 -49 -34 -56 -1 -24 -46 -102 -57 -100 -15 4 -16
-14 -1 -19 9 -3 9 -9 0 -25 -15 -30 -14 -43 4 -37 10 4 15 0 15 -11 0 -9 -7
-16 -17 -14 -31 3 -36 -1 -24 -15 16 -19 17 -66 2 -93 -14 -27 -15 -107 -1
-98 6 3 10 17 10 31 0 13 5 24 10 24 13 0 13 -36 -1 -61 -9 -17 -7 -21 11 -26
l22 -6 -20 -11 c-15 -8 -19 -15 -12 -26 8 -12 10 -12 16 3 3 9 15 17 26 17 19
0 19 -1 4 -25 -9 -13 -16 -35 -16 -47 0 -13 -7 -32 -15 -42 -19 -25 -19 -36 0
-36 8 0 15 -7 15 -16 0 -11 -5 -14 -16 -10 -12 5 -14 1 -8 -17 3 -12 7 -22 8
-23 0 0 20 -10 43 -22 37 -18 42 -19 47 -5 9 23 16 11 9 -15 -3 -12 -9 -19
-14 -16 -5 3 -9 -2 -9 -11 0 -11 5 -15 16 -11 10 4 13 2 8 -6 -5 -7 -2 -9 8
-5 12 4 14 1 11 -14 -3 -10 0 -19 6 -19 6 0 11 4 11 9 0 5 9 11 20 14 24 6 25
3 4 -17 -14 -15 -14 -16 0 -16 9 0 16 -5 16 -11 0 -7 8 -18 18 -25 16 -13 16
-13 0 -14 -13 0 -18 -8 -18 -26 0 -20 -4 -25 -16 -20 -14 5 -15 2 -9 -21 4
-16 12 -48 16 -73 13 -64 13 -66 29 -86 12 -13 12 -18 3 -21 -20 -7 -15 -20 8
-26 14 -4 20 -11 16 -20 -3 -9 7 -26 24 -41 26 -24 40 -66 22 -66 -9 0 -8 -74
1 -89 4 -5 1 -13 -4 -16 -6 -4 -11 -19 -10 -33 1 -15 1 -31 0 -37 -1 -5 -1
-33 0 -62 1 -39 -3 -54 -16 -61 -15 -8 -15 -10 5 -24 11 -8 18 -18 13 -22 -4
-4 2 -14 12 -22 11 -7 17 -17 13 -20 -3 -3 3 -21 14 -40 10 -19 19 -44 19 -56
0 -12 6 -29 14 -37 12 -15 32 -91 23 -91 -2 0 -17 7 -34 15 -42 21 -98 31 -89
17 4 -7 17 -12 29 -12 18 0 19 -2 7 -10 -14 -9 -24 -51 -11 -47 3 1 6 -2 6 -8
0 -5 -3 -9 -7 -8 -5 2 -8 -2 -8 -7 0 -6 5 -10 10 -10 6 0 10 -6 10 -13 0 -8
11 -20 25 -27 14 -7 25 -19 25 -27 0 -7 5 -13 11 -13 5 0 8 -4 5 -9 -4 -5 0
-11 6 -14 9 -3 7 -10 -7 -21 -15 -11 -16 -15 -5 -16 11 0 15 -13 16 -50 1 -27
-2 -48 -6 -45 -8 5 -22 -36 -15 -44 3 -2 5 1 5 9 0 10 3 10 15 0 12 -10 13
-16 4 -26 -9 -11 -7 -15 5 -20 9 -3 16 -12 16 -19 0 -8 12 -22 28 -33 31 -23
96 -137 88 -157 -2 -7 4 -15 15 -18 21 -6 39 -44 39 -84 0 -29 -25 -52 -57
-53 -17 0 -24 -8 -29 -35 -3 -19 -13 -39 -21 -43 -11 -6 -12 -14 -4 -34 5 -14
15 -29 20 -33 6 -3 11 -16 11 -29 0 -12 7 -31 15 -42 13 -17 14 -17 15 -1 0
11 8 17 25 17 14 0 25 5 25 10 0 6 7 10 15 10 17 0 34 -29 37 -64 4 -51 23
-26 22 27 -1 29 1 69 6 88 9 40 14 23 10 -41 -2 -53 5 -50 24 11 l13 44 13
-42 c7 -23 18 -41 24 -40 6 1 12 -8 14 -20 2 -13 -2 -23 -8 -23 -17 0 -7 -45
10 -46 8 -1 21 -2 28 -3 7 0 11 -5 8 -10 -3 -4 -18 -6 -33 -4 -27 5 -26 4 7
-15 30 -17 35 -25 32 -51 -1 -17 3 -31 9 -31 8 0 9 21 5 68 -4 37 -9 90 -11
117 -3 28 -7 68 -10 90 -2 22 -7 117 -10 210 -14 479 -22 617 -37 626 -7 4 -6
9 1 13 7 5 8 13 2 25 -6 10 -8 37 -6 60 2 23 0 39 -4 36 -9 -5 -5 209 4 233 2
6 1 12 -3 12 -4 0 -6 18 -4 40 2 22 8 40 13 40 5 0 9 21 9 48 0 56 16 120 36
139 17 17 19 47 2 37 -7 -4 -8 -3 -4 4 4 7 15 12 24 13 10 0 12 3 5 6 -9 3
-10 10 -3 24 13 24 32 25 23 2 -7 -17 -6 -17 11 0 20 19 51 23 62 6 4 -8 9 -7
15 2 7 11 9 10 9 -3 0 -10 7 -18 15 -18 8 0 15 -4 15 -8 0 -13 43 -9 55 5 6 6
21 10 35 9 14 -1 31 2 37 7 7 5 24 6 38 3 16 -4 25 -2 25 5 0 6 6 9 14 6 8 -3
17 1 20 10 5 12 9 13 20 4 9 -8 17 -8 20 -2 3 5 0 11 -6 14 -7 2 -10 8 -6 12
4 4 14 2 22 -4 17 -14 40 -5 30 11 -4 6 -2 8 4 4 6 -3 14 -1 17 5 4 5 13 8 20
5 8 -3 17 11 25 39 10 34 16 42 31 38 13 -4 19 0 19 12 0 11 5 15 14 12 10 -4
17 4 21 24 6 25 9 28 21 18 20 -17 28 -5 14 21 -11 20 -10 21 12 15 17 -5 19
-4 8 4 -13 9 -12 12 5 25 17 13 18 17 5 25 -12 8 -12 13 -2 23 9 9 12 9 12 0
0 -7 5 -12 11 -12 6 0 9 6 6 14 -3 8 2 16 14 19 12 3 22 17 26 37 l6 33 18
-24 c19 -25 26 -16 9 11 -5 9 -5 19 1 26 5 7 8 18 7 25 -2 8 5 13 15 13 9 -1
17 3 16 10 -4 37 2 58 16 52 11 -4 15 2 15 24 0 17 5 30 11 30 6 0 9 -9 6 -20
-3 -11 -1 -20 4 -20 15 0 22 49 10 64 -10 11 -8 16 8 21 12 3 21 13 21 21 0 8
4 13 9 9 5 -3 12 -1 16 5 3 5 1 10 -4 10 -16 0 -13 16 4 34 10 9 11 17 5 21
-14 9 -2 25 14 19 10 -4 12 2 8 21 -4 21 2 33 24 52 20 17 25 26 16 30 -10 4
-9 8 5 19 13 10 14 13 4 14 -11 0 -10 5 4 20 18 20 38 19 29 -3 -2 -7 5 -13
18 -14 13 0 41 -3 63 -5 22 -3 55 0 74 5 25 6 36 5 42 -5 6 -8 9 -9 9 -2 0 8
21 12 55 13 34 0 55 -4 55 -11 0 -6 11 1 25 16 14 15 25 22 25 17 0 -6 7 -11
16 -11 8 0 13 4 10 9 -6 10 53 41 77 41 23 0 47 11 47 22 0 5 -4 7 -9 3 -21
-13 -70 -12 -75 2 -6 14 39 37 54 28 5 -3 11 -1 15 4 3 6 12 8 20 4 9 -3 15 1
15 8 0 11 2 11 8 2 6 -10 21 -8 62 8 30 11 61 26 69 32 12 10 13 8 9 -10 -4
-13 -1 -24 8 -27 7 -3 11 0 8 7 -7 18 107 69 123 55 20 -16 5 -28 -26 -22 -16
3 -31 2 -34 -4 -4 -5 5 -7 20 -4 18 3 24 1 19 -7 -4 -6 -14 -11 -22 -11 -8 0
-14 -4 -14 -10 0 -5 -8 -10 -19 -10 -10 0 -24 -7 -31 -15 -7 -8 -20 -15 -29
-15 -10 0 -26 -7 -37 -15 -10 -8 -28 -15 -39 -15 -17 0 -17 -2 -5 -10 22 -14
40 -12 40 5 0 8 8 15 18 16 68 2 106 15 96 30 -4 7 -3 9 3 6 9 -6 29 3 213
100 53 27 102 47 109 45 8 -3 11 0 7 7 -4 6 -1 11 8 11 9 0 16 5 16 11 0 5 5
7 10 4 6 -3 23 3 39 14 16 12 33 21 38 21 5 0 25 14 46 31 23 19 37 25 37 17
0 -8 -5 -19 -12 -26 -8 -8 -9 -12 -1 -12 6 0 13 6 16 13 3 9 9 9 26 -1 11 -7
21 -8 21 -3 0 5 -4 11 -10 13 -5 2 6 21 26 43 20 22 49 55 65 73 18 20 38 32
54 32 15 0 24 4 20 9 -3 5 4 12 15 16 11 4 18 10 15 15 -9 14 25 81 37 74 6
-4 8 -3 4 4 -9 15 28 77 47 77 8 0 19 3 22 7 4 4 14 4 23 1 14 -4 14 -3 3 5
-7 5 -10 15 -7 21 4 6 2 11 -3 11 -6 0 -11 -6 -11 -14 0 -8 -4 -18 -10 -21 -5
-3 -10 0 -10 7 0 17 64 88 79 88 6 0 13 11 17 25 3 14 10 25 14 25 5 0 12 10
16 23 7 19 10 15 21 -28 l12 -50 -4 53 c-3 39 -1 52 8 49 16 -6 47 11 47 25 0
7 -5 6 -15 -2 -8 -6 -22 -10 -31 -8 -12 2 -7 10 22 30 21 15 41 23 44 18 7
-11 50 -2 50 11 0 5 -9 9 -20 9 -27 0 -25 13 4 26 15 7 30 8 40 2 12 -7 16 -4
16 12 0 24 8 25 32 3 10 -9 21 -13 25 -9 4 4 2 11 -5 15 -7 4 -10 15 -7 23 8
21 47 31 57 15 6 -9 8 -9 8 2 0 9 9 12 30 9 17 -3 33 -1 36 4 3 4 -4 8 -15 8
-11 0 -23 5 -26 10 -6 10 15 13 70 11 22 -1 26 1 16 8 -10 7 -7 9 12 8 28 -2
36 -21 15 -31 -7 -4 -2 -3 12 0 14 3 40 7 58 8 23 1 32 6 32 18 0 9 5 20 11
23 13 9 27 -4 14 -13 -9 -6 -10 -17 -6 -45 0 -5 11 -1 22 7 19 13 24 13 45 -1
13 -8 24 -11 24 -5 0 6 -6 12 -12 15 -7 2 -10 8 -6 12 4 4 14 2 23 -5 11 -9
18 -10 28 -1 8 6 17 8 20 4 4 -3 7 -1 7 5 0 16 -23 15 -38 0 -9 -9 -12 -8 -12
5 0 11 -8 17 -22 17 -20 0 -20 1 -4 19 15 16 23 18 44 10 14 -5 31 -8 39 -5 7
3 13 1 13 -4 0 -6 -5 -10 -12 -10 -9 0 -9 -3 0 -12 9 -9 6 -19 -16 -41 l-27
-30 30 7 c17 4 37 14 46 22 8 8 21 14 27 14 6 0 19 11 30 25 11 14 27 25 36
25 19 0 21 -16 4 -23 -7 -2 -10 -8 -6 -12 4 -5 19 4 32 18 25 27 60 28 49 1
-3 -8 0 -14 6 -14 6 0 11 5 11 10 0 14 43 30 54 20 5 -5 19 -4 32 0 21 8 24 7
24 -13 0 -18 -2 -19 -10 -7 -5 8 -10 11 -10 5 0 -16 16 -37 26 -33 5 1 12 -17
15 -42 4 -33 6 -37 8 -15 1 32 51 91 51 61 0 -9 6 -16 14 -16 7 0 16 -11 18
-25 4 -20 1 -25 -16 -26 -20 0 -20 -1 2 -9 12 -5 29 -7 37 -4 11 5 15 -1 15
-19 0 -14 5 -29 10 -32 19 -12 10 -26 -12 -19 -23 7 -22 6 2 -20 14 -14 40
-34 58 -42 31 -16 46 -42 17 -30 -19 7 -19 -4 0 -31 8 -11 26 -24 40 -27 25
-6 55 -59 55 -96 0 -11 7 -17 18 -16 10 0 17 -6 17 -17 0 -10 8 -23 18 -28 9
-6 17 -17 17 -24 0 -8 7 -15 15 -15 9 0 20 -11 25 -25 5 -14 21 -30 35 -35 14
-5 25 -14 25 -19 0 -19 32 -42 51 -36 12 4 21 1 25 -9 3 -8 12 -12 20 -9 8 3
14 0 14 -6 0 -6 -4 -11 -10 -11 -5 0 -10 -4 -10 -10 0 -5 7 -10 15 -10 8 0 14
5 13 11 -2 6 3 14 11 16 8 4 12 0 9 -8 -3 -8 9 -26 25 -40 36 -32 21 -48 -17
-18 -32 26 -33 20 -1 -27 14 -20 22 -40 19 -45 -3 -5 2 -9 11 -9 9 0 19 -9 22
-20 3 -11 12 -20 19 -20 8 0 21 -15 30 -33 11 -22 29 -38 60 -51 47 -19 52
-42 6 -26 l-27 10 23 -19 c12 -11 22 -30 23 -43 0 -22 1 -22 9 -3 5 11 9 17
11 13 17 -69 23 -79 45 -84 27 -7 31 -19 8 -28 -8 -3 -12 -2 -9 4 3 6 -1 10
-9 10 -9 0 -16 -7 -16 -16 0 -12 6 -15 21 -11 12 3 22 0 26 -9 3 -8 9 -12 13
-9 4 3 13 -2 20 -10 11 -13 10 -14 -4 -9 -12 5 -15 2 -10 -10 8 -21 41 -20 47
2 3 9 4 5 4 -10 -2 -33 2 -32 -44 -13 -38 16 -55 19 -37 7 6 -4 14 -20 18 -35
7 -28 6 -29 -26 -23 -32 6 -32 6 -5 -5 15 -6 27 -15 27 -19 0 -5 10 -14 21
-21 17 -9 20 -8 16 3 -2 7 -10 12 -16 11 -6 -2 -11 4 -11 12 0 8 7 15 16 15
10 0 14 6 10 15 -6 17 9 21 19 5 3 -6 23 -19 43 -30 29 -15 32 -19 16 -20 -12
0 -27 7 -34 15 -11 13 -15 13 -21 3 -13 -20 -11 -28 6 -22 17 7 21 -11 5 -21
-5 -3 -9 -23 -9 -43 1 -35 2 -36 8 -8 6 28 31 50 31 27 0 -6 -4 -11 -10 -11
-5 0 -10 -7 -10 -15 0 -8 4 -15 10 -15 5 0 9 5 7 11 -1 6 4 14 11 16 10 4 13
-2 10 -18 -3 -21 1 -24 27 -21 l30 3 -23 -16 c-17 -12 -26 -14 -36 -6 -9 7
-16 7 -24 -1 -9 -9 -12 -9 -12 0 0 7 -4 12 -10 12 -5 0 -7 -7 -3 -16 3 -8 12
-13 20 -10 8 3 23 1 34 -4 14 -8 19 -7 19 2 0 10 2 10 9 0 4 -8 12 -13 17 -13
5 0 7 -16 5 -37 l-3 -37 21 25 22 25 -7 -25 c-3 -14 -13 -36 -21 -50 -9 -14
-12 -22 -8 -18 5 4 14 3 22 -4 17 -14 31 -2 16 13 -13 13 -6 39 9 39 7 0 9
-16 5 -40 -3 -22 -1 -40 4 -40 5 0 9 5 9 10 0 18 35 11 47 -9 7 -11 23 -22 35
-24 l23 -4 -22 -8 c-24 -8 -32 -27 -10 -24 34 4 42 -2 23 -16 -17 -13 -17 -15
-3 -21 9 -3 13 -12 10 -20 -4 -10 0 -12 11 -8 9 3 14 10 11 14 -3 4 7 10 20
13 27 5 52 -22 37 -39 -4 -5 0 -3 9 4 21 15 30 5 23 -24 -4 -13 -2 -24 3 -24
6 0 17 -18 26 -40 11 -28 21 -40 36 -40 25 0 38 -19 20 -30 -10 -7 -10 -11 0
-24 7 -9 11 -22 8 -30 -3 -8 -1 -17 6 -20 9 -5 9 -7 0 -12 -22 -10 -14 -27 9
-21 14 4 26 0 34 -11 16 -20 18 -52 4 -52 -5 0 -10 5 -10 11 0 6 -7 9 -15 5
-13 -5 -14 -2 -4 17 11 20 11 21 -4 9 -9 -8 -21 -11 -27 -7 -13 8 -13 -1 0
-26 6 -10 17 -19 25 -19 8 0 15 -4 15 -10 0 -5 7 -7 15 -4 8 4 15 1 15 -6 0
-6 -4 -8 -10 -5 -5 3 -10 2 -10 -4 0 -5 8 -11 18 -13 12 -2 17 -13 17 -36 0
-17 -3 -32 -7 -32 -5 0 -8 -4 -8 -10 0 -5 7 -10 15 -10 21 0 19 -16 -2 -25
-15 -5 -11 -10 20 -26 40 -21 50 -34 17 -24 -11 4 -20 2 -20 -4 0 -6 6 -11 14
-11 14 0 30 -55 20 -71 -9 -15 13 -10 30 6 20 20 25 19 19 -5 -4 -13 -14 -20
-29 -20 -14 0 -27 -7 -31 -17 -4 -10 -11 -21 -16 -24 -5 -4 -5 -9 2 -13 5 -4
20 3 31 14 16 16 25 18 38 11 12 -8 13 -10 3 -11 -11 0 -11 -3 2 -18 11 -12
13 -22 6 -35 -6 -9 -8 -21 -4 -26 3 -5 1 -12 -5 -16 -6 -4 -8 -11 -4 -16 3 -5
9 -7 14 -4 5 3 8 -17 6 -45 -1 -28 1 -53 6 -56 4 -3 8 -16 8 -30 0 -13 4 -24
9 -24 4 0 6 11 3 25 -3 19 0 25 13 25 13 0 15 -3 6 -13 -8 -10 -7 -17 1 -25
15 -15 3 -27 -34 -36 -17 -4 -28 -2 -28 4 0 5 -4 10 -10 10 -5 0 -10 -7 -10
-15 0 -8 9 -15 21 -15 11 0 17 -4 14 -10 -3 -5 -1 -10 4 -10 6 0 11 -7 11 -16
0 -9 -5 -12 -12 -8 -8 5 -9 2 -5 -9 4 -11 1 -17 -8 -17 -8 0 -15 -9 -15 -20 0
-25 9 -25 26 -2 12 15 13 13 14 -18 0 -23 -3 -30 -9 -21 -7 10 -10 10 -16 1
-10 -16 12 -29 37 -22 14 3 16 8 9 15 -15 15 -14 27 4 27 13 0 21 -27 15 -55
-4 -21 -1 -202 4 -242 4 -30 2 -46 -9 -57 -16 -16 -20 -31 -6 -22 14 9 22 -23
11 -43 -5 -10 -6 -21 -3 -25 4 -4 6 -120 5 -258 -1 -156 1 -249 7 -243 5 6 11
21 13 35 3 27 38 42 38 16 0 -9 5 -16 11 -16 6 0 9 6 6 14 -4 10 1 12 16 9 20
-4 21 -3 5 10 -10 8 -18 20 -18 28 0 11 -2 11 -8 1 -5 -8 -8 1 -8 23 1 19 4
35 9 35 4 0 7 -3 7 -7 0 -5 11 -16 24 -25 l24 -17 -19 39 c-24 48 -22 90 4 90
10 0 15 5 12 10 -3 6 1 13 10 16 9 4 14 12 12 18 -3 6 6 25 20 41 13 17 23 26
22 20 -5 -35 2 -55 22 -55 23 0 72 -34 62 -43 -3 -4 1 -9 10 -13 13 -4 14 -10
7 -24 -15 -29 -12 -37 5 -13 16 23 45 21 45 -3 0 -8 -6 -11 -15 -8 -17 7 -21
-21 -4 -31 6 -4 8 -13 5 -21 -7 -17 10 -19 18 -1 3 6 3 1 0 -11 -5 -21 -3 -23
18 -17 12 4 26 12 29 17 4 6 8 6 10 -1 3 -7 12 -9 22 -6 21 9 23 45 2 45 -18
0 -19 11 -2 29 10 11 10 13 0 7 -7 -4 -13 -2 -13 5 0 6 -8 9 -20 6 -13 -3 -20
0 -20 9 0 8 4 14 10 14 5 0 7 7 3 16 -5 14 -8 13 -20 -7 -14 -24 -14 -23 -9 9
3 17 2 32 -3 32 -5 0 -7 10 -3 22 3 13 1 19 -5 15 -6 -4 -13 6 -15 23 -3 17
-1 30 4 30 4 0 8 5 8 10 0 6 -9 10 -19 10 -29 0 -44 51 -23 82 9 12 19 25 22
28 7 5 76 109 94 140 4 8 -7 -1 -26 -20 -19 -19 -33 -38 -31 -42 2 -5 -5 -8
-15 -8 -45 0 -94 169 -58 199 9 7 16 22 16 33 0 11 6 18 14 16 8 -2 16 2 18 7
1 6 15 21 30 33 15 13 28 30 28 38 0 8 5 14 10 14 6 0 10 7 10 15 0 9 6 15 13
13 21 -4 55 24 49 41 -4 10 -1 13 12 8 13 -5 20 1 28 23 9 28 28 41 28 20 0
-5 5 -10 11 -10 6 0 8 8 4 19 -3 11 0 23 6 27 8 5 9 3 4 -6 -5 -8 -4 -11 3 -6
6 4 9 13 5 21 -3 10 1 15 12 15 9 0 15 6 12 13 -6 17 12 49 24 42 5 -4 9 -2 9
4 0 5 12 14 28 19 15 6 22 11 16 11 -24 2 -83 -29 -135 -71 -80 -64 -133 -98
-152 -98 -15 0 -14 4 8 25 30 31 31 35 6 28 -19 -5 -38 22 -22 31 5 3 5 25 1
48 -5 25 -4 48 1 55 7 7 6 14 -1 18 -17 11 -12 35 7 28 12 -5 15 -2 10 10 -7
20 4 22 21 5 9 -9 12 -8 12 8 0 11 -4 24 -9 29 -15 16 -24 82 -12 89 5 4 8 13
4 21 -3 9 1 15 11 15 19 0 19 1 5 37 -18 44 -18 65 0 60 12 -3 16 4 16 25 0
15 -4 28 -8 28 -5 0 -7 12 -6 28 2 15 0 33 -4 39 -5 7 -3 21 3 32 8 16 7 22
-6 29 -24 13 -1 52 31 52 14 0 25 3 25 8 0 4 12 15 28 24 20 13 22 18 10 18
-10 0 -18 -3 -18 -8 0 -13 -60 -34 -78 -27 -15 6 -15 8 4 15 12 5 25 13 29 19
3 6 10 9 15 6 13 -8 100 16 100 27 0 5 4 7 8 4 5 -3 24 8 43 24 19 16 28 29
22 30 -7 0 -13 5 -13 11 0 6 8 8 18 5 14 -5 21 4 35 41 15 41 16 48 2 63 -17
19 -20 40 -5 40 6 0 10 -7 10 -17 0 -9 3 -14 6 -10 11 11 -7 46 -22 40 -17 -6
-18 1 -2 26 8 14 8 29 0 62 -6 24 -7 48 -3 54 19 23 -9 244 -38 310 -23 52
-35 92 -33 107 2 9 -8 38 -22 65 -15 26 -26 56 -26 65 0 9 -8 21 -17 27 -13 7
-15 12 -5 23 11 14 9 152 -4 246 -4 25 -2 48 5 56 8 9 5 34 -10 92 -11 43 -25
83 -30 88 -13 14 -11 -1 3 -27 10 -20 10 -21 -5 -8 -18 14 -24 71 -8 71 5 0
-1 21 -13 48 -14 29 -23 70 -25 109 -1 34 -7 77 -13 95 -10 34 -25 99 -35 155
-4 28 -8 31 -23 23 -10 -6 -23 -10 -29 -10 -19 0 -12 18 9 25 13 4 20 15 20
33 0 23 -1 24 -12 9 -7 -9 -17 -13 -23 -9 -17 12 -45 81 -39 97 4 8 2 15 -4
15 -10 0 -38 60 -34 73 1 5 -6 11 -16 14 -10 2 -25 20 -32 39 -8 19 -19 34
-26 34 -9 0 -12 10 -9 29 4 36 -20 63 -28 31 -3 -13 0 -20 9 -20 8 0 14 -4 14
-8 0 -5 -10 -8 -22 -7 -17 1 -23 8 -23 27 -1 16 -15 41 -38 64 -40 42 -45 54
-22 54 17 0 20 16 5 25 -11 7 -40 -18 -40 -34 0 -19 -18 -12 -25 10 -9 27 -42
60 -57 57 -7 -2 -14 7 -16 20 -2 12 1 22 7 22 6 0 11 -4 11 -10 0 -5 7 -10 17
-10 15 0 15 1 0 18 -10 10 -17 24 -17 30 0 7 -5 12 -10 12 -6 0 -22 12 -37 26
-14 14 -28 23 -31 20 -3 -3 10 -19 29 -36 19 -16 29 -30 23 -30 -5 0 -16 6
-22 12 -10 10 -15 10 -21 -1 -11 -17 -32 -5 -25 14 4 9 -3 15 -22 17 -29 3
-47 28 -20 28 9 0 25 9 37 21 16 16 23 18 35 8 8 -6 18 -8 22 -4 4 4 1 10 -6
12 -7 3 -26 16 -42 30 -17 14 -30 21 -30 17 0 -4 8 -13 17 -20 17 -12 16 -14
-6 -33 -25 -22 -51 -28 -51 -12 0 5 -9 7 -19 4 -20 -5 -38 27 -32 56 2 9 -3
12 -15 7 -10 -4 -20 -3 -23 1 -3 5 -31 16 -62 26 -31 9 -69 29 -84 42 -18 17
-33 24 -46 20 -11 -4 -19 -2 -19 4 0 6 -9 11 -19 11 -11 0 -23 5 -26 10 -3 6
1 10 10 10 9 0 15 6 12 13 -2 6 -17 11 -32 10 -30 -2 -71 15 -61 25 10 10 -58
29 -70 20 -7 -5 -16 -2 -23 6 -10 12 -4 14 44 14 35 -1 59 -6 63 -15 5 -8 29
-13 62 -14 30 -1 71 -9 90 -18 l35 -16 -27 -3 c-15 -2 -36 2 -48 8 -16 8 -20
8 -20 -4 0 -8 10 -17 23 -21 73 -19 97 -30 97 -41 0 -7 5 -16 10 -19 6 -4 9
-1 8 7 -2 8 6 13 20 12 37 -1 25 13 -18 20 -22 3 -40 11 -40 16 0 13 82 1 91
-13 4 -5 9 -3 13 4 4 10 7 11 12 2 3 -7 11 -10 19 -7 8 3 22 1 32 -5 17 -10
16 -11 -4 -17 -29 -8 -31 -40 -3 -40 14 0 18 5 15 17 -4 12 3 18 27 23 30 6
31 7 12 21 -10 8 -25 15 -32 15 -7 0 -42 10 -79 21 -51 17 -67 19 -73 9 -9
-14 -30 -5 -30 13 0 15 -134 57 -181 57 -20 0 -39 3 -43 8 -15 15 -160 30
-179 18 -12 -8 -22 -8 -36 1 -14 9 -21 8 -32 -2 -8 -8 -37 -15 -66 -16 -29 -1
-50 -6 -47 -11 3 -4 -8 -11 -25 -14 -17 -4 -31 -10 -31 -15 0 -5 -4 -9 -10 -9
-17 0 -11 30 8 37 9 4 22 12 29 19 10 9 8 13 -7 17 -11 3 -20 11 -20 17 0 7 8
10 20 7 11 -3 18 -1 15 3 -3 5 7 16 22 25 27 16 27 16 3 11 -14 -3 -35 -9 -47
-12 -20 -5 -23 -2 -23 20 0 39 -18 31 -22 -9 -2 -20 -7 -35 -13 -35 -6 0 -9
20 -7 44 2 24 -1 47 -7 51 -6 3 -11 12 -11 18 0 7 4 6 10 -3 5 -8 10 -13 11
-10 9 50 9 54 0 40 -12 -18 -23 -8 -27 26 -2 14 -12 43 -23 65 -12 22 -21 48
-21 59 0 10 -4 22 -10 25 -5 3 -16 20 -25 38 -8 18 -49 67 -90 110 -41 42 -75
82 -75 88 0 6 -6 9 -14 6 -17 -7 -69 41 -60 55 4 6 3 8 -4 4 -6 -3 -19 5 -30
19 -11 14 -24 25 -28 25 -13 1 -54 37 -54 48 0 5 -8 16 -17 23 -11 10 -14 10
-9 2 11 -19 -11 -16 -42 5 -93 63 -121 80 -154 96 -21 9 -38 20 -38 24 0 10
-80 50 -115 57 -16 4 -50 9 -75 12 -25 3 -47 9 -50 14 -8 12 -90 38 -90 28 0
-5 -9 -9 -21 -9 -14 0 -19 5 -16 14 4 10 -8 19 -39 30 -24 8 -44 11 -44 7 0
-4 -7 -8 -15 -8 -8 0 -12 4 -9 8 5 8 -10 13 -66 24 -19 4 -48 13 -65 20 -16 7
-68 21 -115 30 -47 10 -103 21 -125 26 -55 11 -115 11 -115 -1z m3035 -5255
c-6 -5 -14 -36 -18 -67 -5 -53 -4 -57 13 -55 29 5 33 13 20 37 -9 18 -9 24 0
30 7 4 10 13 6 19 -4 6 -1 9 7 5 8 -3 17 -23 21 -44 3 -21 12 -41 18 -44 10
-3 8 -9 -4 -19 -10 -8 -18 -20 -19 -28 0 -8 -5 -4 -11 9 -13 25 -48 30 -48 6
0 -14 3 -14 15 -4 14 12 16 9 13 -23 -2 -35 -18 -54 -18 -23 0 22 -17 28 -40
14 -28 -18 -25 -29 5 -18 22 8 24 7 21 -13 -3 -12 -5 -25 -5 -29 -1 -5 -10 -8
-20 -8 -11 0 -27 -10 -35 -22 -15 -21 -15 -21 -14 18 1 21 5 41 9 45 10 6 30
101 23 108 -2 2 -8 -7 -13 -21 -13 -35 -61 -53 -61 -23 0 9 6 12 17 8 12 -5
15 -2 10 10 -3 9 -2 17 3 17 6 0 10 7 10 15 0 8 5 15 11 15 5 0 7 5 4 10 -4 6
-11 8 -16 5 -5 -4 -9 -1 -9 5 0 6 6 13 13 15 6 3 13 17 14 31 1 28 19 52 29
41 4 -4 2 -18 -4 -31 -9 -20 -8 -24 6 -22 8 2 23 22 31 45 14 39 16 41 22 19
3 -13 1 -27 -6 -33z"/>
<path d="M12710 18602 c0 -6 5 -14 10 -17 21 -13 9 -23 -24 -21 -32 3 -34 2
-25 -21 8 -21 7 -23 -10 -13 -30 16 -61 13 -55 -5 4 -8 1 -15 -5 -15 -6 0 -11
7 -11 15 0 9 -9 15 -24 15 -14 0 -28 5 -31 10 -3 6 -16 9 -28 9 -17 -1 -18 -2
-4 -6 21 -5 21 -10 3 -29 -10 -9 -17 -11 -21 -3 -12 19 -56 30 -71 18 -19 -15
-18 -29 2 -29 8 0 12 5 9 10 -3 6 -1 10 5 10 7 0 9 -7 6 -16 -3 -9 -6 -17 -6
-20 0 -7 -35 10 -42 20 -5 8 -14 7 -28 -2 -17 -10 -20 -10 -20 5 0 15 -2 16
-10 3 -8 -12 -10 -12 -16 3 -3 9 -10 17 -16 17 -5 0 -7 -4 -3 -9 3 -6 -9 -7
-30 -4 -20 3 -41 1 -49 -6 -10 -9 -16 -9 -21 -1 -4 6 -16 8 -27 4 -13 -4 -24
-1 -29 7 -6 10 -9 7 -9 -10 0 -23 -1 -23 -19 -7 -11 10 -29 16 -43 13 -20 -4
-20 -4 5 -6 38 -1 24 -21 -14 -21 -18 0 -28 -4 -24 -10 9 -14 -8 -13 -23 2 -8
8 -18 9 -35 1 -15 -7 -29 -8 -40 -1 -10 5 -22 6 -27 3 -6 -3 -10 -1 -10 5 0 8
-6 8 -20 0 -14 -7 -20 -7 -20 0 0 16 -46 12 -60 -5 -7 -8 -23 -15 -36 -15 -14
0 -39 -16 -64 -42 -25 -26 -38 -35 -34 -23 4 11 4 17 -1 13 -4 -4 -9 -21 -11
-38 -2 -16 -15 -51 -29 -77 l-25 -48 6 41 c4 28 2 44 -7 49 -8 6 -11 4 -7 -6
3 -8 0 -26 -8 -40 l-13 -24 -1 30 c-1 26 -3 27 -10 10 -5 -11 -9 -39 -9 -62
-1 -24 -5 -43 -11 -43 -9 0 -14 30 -12 75 0 11 -2 14 -4 7 -3 -6 -10 -9 -16
-6 -7 5 -9 -5 -4 -28 7 -37 -1 -71 -13 -63 -4 2 -7 -10 -5 -28 1 -18 -4 -42
-12 -54 -8 -12 -14 -30 -14 -40 -1 -16 -2 -16 -12 1 -8 15 -8 21 0 24 7 2 10
8 6 13 -3 5 -2 15 3 22 10 16 11 57 1 57 -8 0 -12 -15 -9 -38 1 -8 -5 -22 -14
-32 -12 -13 -14 -26 -9 -42 6 -20 5 -21 -9 -9 -9 7 -15 17 -12 21 3 4 -2 13
-10 20 -12 10 -13 7 -5 -19 9 -31 7 -33 -20 -35 -8 -1 -15 -8 -15 -16 0 -8 -4
-18 -10 -22 -6 -5 -5 -15 3 -29 16 -26 5 -41 -12 -16 -16 21 -30 23 -22 2 4
-11 -2 -15 -20 -15 -21 0 -24 -3 -18 -24 4 -18 0 -30 -15 -42 -11 -10 -18 -20
-16 -24 2 -3 6 -25 9 -48 3 -23 9 -50 15 -59 9 -16 11 -16 20 7 5 14 10 19 10
12 1 -7 -10 -34 -25 -59 -18 -33 -21 -44 -10 -40 9 4 18 2 21 -3 4 -6 0 -10
-8 -10 -9 0 -14 -11 -15 -30 0 -18 4 -30 12 -30 7 0 13 -7 13 -16 0 -10 -7
-14 -18 -11 -10 3 -20 -2 -23 -10 -4 -11 -2 -13 9 -9 8 3 15 1 15 -4 0 -5 8
-16 17 -26 10 -10 17 -33 18 -55 0 -42 10 -51 20 -19 4 14 15 20 36 20 25 0
33 8 31 31 -1 3 4 6 11 6 7 0 20 4 30 8 17 7 17 6 0 -24 -11 -18 -26 -31 -38
-31 -41 0 -64 -12 -62 -31 1 -10 9 -22 19 -25 10 -3 18 -11 18 -19 0 -7 6 -15
13 -18 7 -2 13 -17 15 -33 3 -43 12 -42 12 1 0 36 1 37 14 19 8 -10 18 -16 22
-11 4 4 2 7 -4 7 -7 0 -12 5 -12 10 0 6 7 10 15 10 8 0 15 -5 15 -10 0 -7 13
-8 35 -4 23 4 35 2 35 -5 0 -6 -10 -11 -22 -11 -23 -1 -23 -1 -3 -16 11 -8 21
-19 21 -24 1 -6 3 -13 4 -17 1 -5 2 -12 1 -16 -1 -5 3 -6 8 -3 8 5 216 -95
231 -111 3 -3 -7 -3 -21 0 -17 5 -31 2 -38 -7 -9 -11 -6 -15 14 -18 14 -3 25
-2 25 2 0 4 15 6 33 5 31 -2 49 -7 92 -25 28 -12 178 -58 212 -65 16 -3 44 -8
63 -11 56 -8 14 12 -55 27 -54 11 -57 13 -30 19 30 6 30 7 -15 19 -54 15 -285
113 -332 140 -18 11 -48 23 -67 26 -42 7 -63 27 -49 46 7 11 11 11 15 2 2 -7
12 -13 21 -13 10 -1 35 -12 57 -26 36 -22 113 -60 200 -99 48 -21 127 -46 132
-41 3 2 -5 7 -16 11 -12 4 -18 13 -16 24 2 12 -4 21 -16 24 -27 7 -24 26 4 20
18 -4 19 -3 7 6 -8 6 -25 11 -37 11 -16 0 -20 -5 -16 -20 3 -10 14 -22 24 -25
10 -4 19 -11 19 -16 0 -13 0 -13 -84 26 -42 19 -78 35 -81 35 -2 0 -33 17 -67
38 -35 21 -75 42 -90 46 -16 3 -28 11 -28 17 0 6 -4 8 -9 4 -5 -3 -12 -1 -15
4 -3 5 9 12 28 15 19 4 39 13 46 21 6 7 18 11 26 8 8 -3 14 0 14 6 0 6 -19 11
-45 11 -26 0 -45 5 -45 11 0 6 -7 9 -15 5 -21 -8 -39 28 -21 43 8 7 12 20 9
31 -4 14 1 21 21 26 14 3 26 12 26 20 0 8 6 14 13 14 7 0 18 9 25 20 7 11 19
20 26 20 8 0 16 4 18 8 4 11 140 83 146 77 3 -2 -1 -25 -7 -51 -7 -26 -9 -61
-5 -77 21 -97 91 -187 144 -187 16 0 30 -4 30 -8 0 -8 -101 2 -145 14 -16 4
-17 3 -5 -5 13 -10 13 -12 0 -21 -13 -8 -13 -10 2 -10 9 0 18 4 20 9 2 6 21 6
48 1 25 -5 68 -9 95 -8 43 0 46 1 20 8 -24 6 -16 8 35 9 77 1 115 21 160 83
17 23 38 66 46 96 14 48 15 61 2 113 -8 33 -12 59 -9 59 11 0 94 -31 120 -44
31 -17 151 -130 151 -144 0 -5 -7 -15 -15 -22 -9 -7 -13 -21 -10 -30 6 -18
-27 -49 -69 -64 -10 -3 -16 -9 -13 -12 3 -3 24 4 48 15 57 28 71 26 91 -10
l18 -31 -32 8 c-29 6 -31 5 -19 -9 9 -11 29 -16 67 -16 50 1 54 3 48 22 -5 17
-3 19 15 14 14 -3 24 0 28 9 3 8 11 14 18 14 7 0 15 5 17 12 2 6 20 11 40 10
28 -1 38 4 48 23 12 23 14 23 26 7 12 -15 15 -15 24 -2 13 19 13 30 0 30 -5 0
-10 5 -10 11 0 6 8 8 19 4 11 -3 21 0 24 9 7 18 -1 26 -25 26 -10 0 -18 5 -18
11 0 7 12 10 30 7 32 -5 43 15 15 26 -14 5 -14 9 0 36 14 28 14 31 -5 47 -11
10 -26 18 -33 18 -7 0 -11 8 -9 18 2 10 -3 17 -13 17 -8 0 -15 7 -15 15 0 8
-7 15 -15 15 -9 0 -18 7 -21 15 -4 8 -13 15 -22 15 -15 0 -80 44 -93 63 -4 5
-11 7 -17 3 -12 -7 -73 12 -87 28 -5 6 -23 13 -40 15 -16 1 -32 7 -36 12 -3 5
-18 5 -36 0 -27 -8 -31 -7 -26 7 4 9 2 13 -4 9 -6 -4 -14 -1 -16 5 -4 10 -7
10 -14 1 -7 -9 -18 -10 -42 -3 -18 5 -36 9 -40 8 -3 -1 -14 2 -25 7 -13 6 -21
3 -28 -9 -12 -21 -29 -11 -21 12 7 16 5 16 -17 1 -23 -14 -31 -14 -95 2 -38
10 -73 18 -76 18 -4 1 -9 9 -11 19 -4 14 1 18 23 20 16 1 29 -1 29 -6 0 -4 12
-9 27 -10 21 -2 16 3 -23 23 -49 25 -49 25 -65 6 -9 -11 -19 -18 -22 -15 -3 3
4 15 15 26 19 19 26 20 60 11 32 -9 36 -8 27 3 -6 8 -29 19 -50 26 -60 18 -39
20 27 3 64 -17 104 -19 63 -4 -20 7 -26 15 -22 29 3 11 12 20 19 20 8 0 14 5
14 10 0 6 5 10 10 10 6 0 9 -3 8 -7 -3 -17 15 -43 31 -42 10 0 11 2 3 6 -6 2
-10 9 -6 14 3 5 0 9 -7 9 -8 0 -6 5 5 13 10 8 49 13 94 14 70 1 73 0 27 -7
-27 -4 -54 -5 -60 -2 -5 3 -5 -1 2 -9 12 -15 103 -18 137 -4 16 7 18 5 13 -8
-4 -11 2 -19 21 -26 23 -8 24 -10 7 -12 -11 -1 -24 -3 -30 -4 -5 -2 -25 -3
-42 -4 -18 0 -33 -5 -33 -10 0 -10 97 -3 120 9 8 4 39 8 69 9 29 1 61 6 71 11
25 13 73 13 87 -1 8 -8 22 -8 49 0 47 13 68 13 35 0 -13 -5 -21 -12 -18 -15 3
-3 24 4 47 16 23 12 51 19 62 17 11 -3 32 0 46 6 20 9 26 9 30 -1 2 -6 11 -12
21 -12 9 0 25 -6 36 -13 29 -20 64 -27 72 -14 3 7 3 9 -2 5 -4 -4 -17 4 -28
18 -15 20 -25 24 -45 19 -22 -5 -24 -4 -13 9 13 15 49 8 78 -16 18 -15 16 -3
-6 40 -11 20 -25 51 -31 67 -13 30 -21 48 -49 98 -9 16 -44 58 -79 95 -34 37
-65 75 -68 85 -3 9 -10 17 -16 17 -6 0 -5 -7 3 -17 11 -15 10 -14 -9 1 -12 11
-22 30 -22 43 0 12 -6 23 -13 23 -7 0 -20 9 -30 20 -9 11 -23 20 -31 20 -8 0
-21 3 -30 6 -9 3 -16 1 -16 -4z"/>
<path d="M9047 18526 c-3 -8 -29 -15 -73 -19 -56 -4 -70 -2 -81 11 -11 16 -12
16 -13 -1 0 -10 -4 -16 -9 -12 -11 6 -61 -40 -61 -55 0 -6 -6 -10 -13 -10 -17
0 -81 -66 -74 -77 3 -5 -15 -30 -39 -57 -24 -27 -44 -52 -44 -56 0 -4 -12 -13
-27 -20 -22 -10 -24 -14 -11 -17 14 -4 13 -8 -10 -31 -16 -15 -23 -24 -18 -19
6 4 15 7 22 7 13 0 -18 -74 -36 -85 -5 -3 -10 -11 -10 -18 0 -6 6 -3 13 7 9
12 30 19 68 21 30 2 45 2 34 -1 -31 -8 -65 -26 -65 -36 0 -4 8 -4 18 1 9 6 34
13 55 16 22 3 47 17 62 33 21 23 25 24 25 9 0 -11 -9 -26 -21 -36 -20 -16 -20
-17 23 -12 33 3 39 6 23 12 -17 7 -16 8 8 8 16 1 26 -2 23 -7 -2 -4 7 -12 20
-19 13 -6 24 -7 24 -2 0 5 5 9 10 9 6 0 10 -6 10 -14 0 -15 80 -41 102 -33 7
2 -8 11 -34 18 -27 7 -48 17 -48 21 0 10 71 0 124 -17 32 -10 44 -10 67 2 30
15 40 30 14 19 -9 -3 -15 0 -15 8 0 8 -16 17 -37 21 -29 5 -40 3 -49 -10 -7
-9 -15 -12 -18 -7 -3 6 1 12 9 16 29 11 15 26 -24 26 -39 0 -62 -13 -41 -23 6
-3 5 -4 -2 -2 -7 1 -12 8 -10 14 1 6 -11 11 -28 11 -16 0 -30 4 -30 10 0 5 6
8 13 6 6 -1 9 -1 5 1 -4 2 -5 10 -2 17 4 9 19 10 67 3 34 -6 83 -10 110 -9 26
0 45 -2 43 -6 -2 -4 39 -8 92 -9 65 -2 92 1 82 7 -13 9 -13 11 -1 19 13 9 50
-1 77 -21 6 -4 20 -1 32 8 23 16 30 6 10 -14 -9 -9 -3 -12 30 -12 31 0 42 -4
42 -15 0 -19 2 -19 46 0 26 11 34 11 31 2 -2 -6 -9 -11 -15 -10 -10 2 -11 -5
-12 -66 0 -22 -1 -23 -18 -8 -11 10 -22 13 -32 7 -8 -5 -18 -6 -24 -3 -5 3 -6
1 -3 -4 4 -6 19 -8 34 -5 27 5 28 4 11 -15 -10 -11 -18 -25 -18 -31 0 -7 7 -9
18 -5 11 4 14 3 7 -4 -5 -5 -37 -15 -70 -22 -85 -17 -205 -55 -205 -64 0 -4
-9 -3 -19 3 -30 15 -49 12 -73 -12 -12 -12 -29 -23 -38 -24 -8 -1 -32 -9 -52
-18 -28 -12 -38 -13 -41 -3 -3 8 -14 3 -30 -14 -14 -15 -23 -30 -19 -34 4 -4
-2 -6 -13 -5 -11 1 -22 1 -25 0 -3 -1 -16 -4 -29 -6 -30 -5 -41 -15 -23 -21
21 -8 13 -19 -23 -33 -29 -11 -33 -16 -22 -29 8 -9 8 -12 1 -8 -12 7 -50 -40
-40 -50 9 -9 66 -11 66 -3 0 11 90 63 97 56 7 -7 -38 -45 -54 -46 -7 0 -13
-12 -14 -27 0 -16 -3 -22 -6 -15 -2 6 -9 12 -14 12 -6 0 -7 -4 -4 -10 3 -5 -1
-10 -10 -10 -12 0 -15 -7 -11 -31 4 -25 2 -28 -10 -18 -11 9 -14 8 -14 -5 0
-9 -3 -15 -7 -13 -5 1 -9 -2 -10 -8 -2 -5 3 -10 10 -10 6 0 14 -11 15 -25 5
-36 21 -51 41 -41 29 16 74 17 79 2 3 -9 0 -12 -10 -9 -7 3 -27 0 -43 -7 -25
-11 -26 -14 -10 -15 26 -3 27 -3 48 5 22 9 22 -8 0 -31 -16 -16 -16 -16 5 -10
17 6 27 2 41 -15 16 -20 21 -21 49 -11 19 6 32 7 32 1 0 -5 8 -9 17 -9 9 0 14
-3 10 -6 -3 -4 -25 -6 -49 -6 -34 1 -39 -1 -25 -9 10 -6 38 -12 63 -15 26 -2
55 -9 66 -15 11 -6 26 -8 34 -5 16 6 19 46 3 46 -6 0 -9 -7 -5 -15 4 -10 -1
-15 -15 -15 -15 0 -19 5 -15 15 3 8 0 15 -6 15 -6 0 -5 6 3 17 12 14 12 16 -2
11 -10 -4 -29 5 -50 23 -33 28 -34 29 -9 29 23 0 35 -5 89 -38 17 -10 20 -10
16 0 -6 16 -87 68 -130 84 -44 17 -44 40 -1 42 28 1 35 -3 40 -23 4 -14 11
-25 17 -25 7 0 9 10 5 23 -7 31 27 87 54 87 11 0 20 4 20 10 0 10 159 90 179
90 9 0 10 -10 5 -32 -10 -49 -6 -105 11 -138 8 -16 15 -35 15 -43 0 -8 12 -23
26 -33 15 -10 34 -27 43 -36 8 -10 23 -18 33 -18 10 0 18 -4 18 -10 0 -5 18
-13 40 -16 44 -7 45 -16 2 -22 -15 -2 -29 -6 -32 -9 -3 -3 31 -2 75 2 44 5 97
8 118 7 21 -1 37 3 37 10 0 7 -24 9 -77 5 -63 -4 -71 -4 -43 5 60 17 101 38
95 47 -3 5 3 12 12 15 48 16 103 149 83 201 -14 36 -13 65 2 65 7 0 65 -25
128 -56 63 -31 125 -61 137 -66 12 -6 20 -15 17 -20 -3 -4 4 -8 15 -8 13 0 19
-5 15 -14 -3 -7 2 -16 12 -20 12 -4 15 -2 11 9 -10 25 10 26 58 4 43 -20 61
-49 30 -49 -8 0 -15 7 -15 15 0 8 -5 15 -11 15 -6 0 -9 -9 -6 -19 7 -28 -54
-50 -157 -58 -46 -4 -86 -12 -94 -20 -11 -11 -10 -13 7 -13 12 0 21 4 21 9 0
6 20 8 45 6 24 -3 47 0 50 5 4 6 15 4 28 -5 12 -8 26 -15 32 -15 5 0 3 5 -5
10 -11 7 -7 10 20 11 58 3 61 4 69 18 5 7 14 11 19 7 13 -8 29 63 16 73 -5 3
-16 19 -24 35 -17 34 -64 86 -77 86 -5 0 -15 9 -23 20 -8 11 -22 20 -32 20 -9
0 -22 8 -27 18 -5 10 -30 27 -55 37 -47 19 -64 43 -23 31 12 -4 31 -9 42 -11
11 -3 25 -11 30 -18 6 -8 15 -12 21 -10 6 2 23 -8 38 -22 15 -14 31 -25 37
-25 5 0 9 -4 9 -10 0 -11 70 -60 86 -60 12 0 13 47 2 66 -4 6 -5 14 -1 18 14
14 34 5 46 -21 6 -16 16 -31 22 -35 18 -13 55 -9 55 6 0 8 6 17 13 20 6 3 1 3
-12 0 -17 -4 -21 -3 -16 6 4 7 1 16 -6 21 -10 6 -8 9 9 9 12 0 22 5 22 11 0 5
-4 7 -10 4 -16 -10 -35 6 -19 16 10 6 11 11 3 17 -10 6 -22 39 -30 82 -2 8 2
18 9 22 8 5 6 8 -7 8 -15 0 -16 3 -6 15 12 15 5 39 -10 30 -13 -8 -24 65 -12
77 8 8 10 4 6 -13 -5 -24 -5 -24 5 -1 6 12 16 22 23 22 7 0 5 5 -5 13 -11 8
-15 20 -11 35 6 22 24 31 24 12 0 -5 5 -10 10 -10 19 0 10 19 -12 26 -12 3
-28 13 -36 20 -19 20 -42 17 -42 -5 0 -22 23 -44 34 -33 5 4 6 -4 4 -17 -1
-14 -11 -25 -20 -27 -14 -2 -17 3 -12 22 5 20 2 24 -17 24 -19 0 -21 2 -9 10
12 7 12 14 4 27 -13 22 -7 43 12 43 9 0 12 5 8 11 -4 7 -10 7 -16 1 -6 -6 -17
-8 -24 -5 -22 8 -16 33 11 43 33 12 32 17 -5 18 -26 1 -32 -4 -37 -29 -6 -32
-18 -38 -27 -13 -5 13 -9 14 -20 5 -16 -13 -26 4 -26 44 0 13 -5 27 -11 30 -6
4 -8 13 -5 21 3 8 0 14 -6 14 -7 0 -9 -13 -5 -34 4 -28 3 -34 -9 -29 -8 3 -14
11 -14 18 0 18 -32 28 -41 13 -5 -8 -10 -3 -14 15 -4 15 -11 27 -15 27 -10 0
-63 110 -57 117 3 2 13 -12 22 -32 21 -43 30 -41 14 4 -6 17 -20 36 -30 42
-10 5 -19 19 -19 29 0 11 -4 20 -9 20 -5 0 -17 3 -26 6 -11 4 -7 -3 9 -19 14
-14 26 -34 26 -43 0 -15 -5 -13 -28 9 -15 15 -35 27 -44 27 -17 0 -41 24 -32
33 3 3 -13 3 -37 0 -28 -4 -40 -3 -36 4 4 7 -8 12 -33 15 -22 2 -40 0 -40 -5
0 -4 -8 -3 -19 2 -31 17 -204 27 -258 16 -34 -8 -48 10 -15 18 9 3 -4 5 -30 6
-26 0 -50 -4 -53 -9 -4 -6 -11 -7 -17 -4 -6 4 -5 10 3 15 17 11 -16 6 -44 -6
-28 -12 -67 2 -60 22 5 13 2 15 -11 10 -10 -4 -22 -7 -27 -7 -6 0 -7 -4 -4
-10 3 -5 -1 -10 -9 -10 -14 0 -20 12 -17 33 0 4 -4 7 -10 7 -6 0 -9 -8 -6 -19
3 -14 -1 -18 -17 -16 -11 1 -29 3 -39 4 -10 0 -15 6 -11 12 3 6 15 9 25 6 11
-3 19 -1 19 4 0 5 -5 9 -11 9 -5 0 -7 5 -4 10 3 6 2 10 -3 10 -6 0 -12 -6 -15
-14z m273 -681 c0 -9 7 -18 15 -21 8 -4 15 -12 15 -18 0 -7 11 -19 25 -26 30
-16 33 -34 4 -27 -12 3 -22 0 -25 -8 -3 -8 -13 -14 -22 -14 -32 -1 -87 -14
-99 -23 -7 -5 -22 -7 -34 -3 -18 6 -20 4 -14 -15 6 -19 4 -21 -17 -15 -41 11
-68 28 -68 42 0 8 -4 12 -9 9 -10 -7 -41 3 -41 13 0 3 12 12 27 18 19 9 30 10
40 2 15 -13 18 -33 4 -25 -5 4 -7 -3 -4 -13 6 -23 31 -17 29 7 0 9 -10 24 -20
33 -19 16 -14 45 5 33 6 -3 18 1 28 10 10 9 47 25 82 36 80 23 79 23 79 5z"/>
<path d="M14407 17741 c-39 -20 -97 -65 -109 -85 -7 -12 9 -16 62 -17 20 0 28
-7 36 -35 6 -19 7 -34 3 -34 -13 0 -11 -27 4 -51 7 -14 8 -23 2 -25 -11 -4
-12 -95 -1 -113 4 -6 4 -11 -1 -11 -4 0 -7 -24 -5 -52 5 -97 2 -152 -9 -159
-7 -4 -8 -9 -1 -13 7 -4 5 -29 -5 -72 -8 -36 -12 -68 -9 -71 9 -9 14 -1 18 27
1 14 6 27 10 30 4 3 9 22 11 42 2 20 10 47 19 60 25 39 31 69 35 173 2 55 3
105 4 110 0 6 -1 26 -4 45 -3 19 0 41 6 48 6 7 9 42 8 78 -1 38 2 71 9 79 6 8
10 24 8 37 -4 30 -41 34 -91 9z"/>
<path d="M7342 17616 c-27 -31 -29 -38 -22 -77 5 -24 6 -48 3 -53 -3 -4 -7
-61 -8 -125 -1 -64 -7 -130 -13 -148 -8 -25 -7 -34 4 -44 9 -7 11 -16 5 -23
-5 -6 -8 -25 -7 -43 1 -18 -2 -29 -8 -26 -5 4 -6 -3 -1 -18 4 -13 9 -40 10
-59 2 -19 4 -39 5 -45 1 -5 2 -14 1 -19 -10 -51 -10 -110 0 -122 6 -8 7 -14 2
-14 -4 0 -8 -19 -8 -42 0 -24 -4 -54 -9 -67 -6 -16 -5 -21 3 -17 6 4 11 0 11
-8 0 -9 -7 -16 -16 -16 -8 0 -13 -4 -10 -8 3 -4 7 -26 10 -48 3 -21 11 -57 16
-79 6 -22 14 -51 17 -65 2 -14 7 -32 10 -40 4 -8 5 -19 4 -24 -1 -4 4 -14 10
-22 9 -11 8 -14 -2 -14 -8 0 -6 -5 6 -13 13 -10 15 -16 6 -21 -9 -6 -6 -13 9
-26 12 -11 19 -23 16 -28 -3 -6 1 -13 10 -16 11 -4 13 -13 8 -28 -3 -13 -3
-20 1 -16 5 5 15 -1 22 -12 8 -11 19 -17 25 -14 7 4 8 2 4 -4 -4 -6 -1 -20 6
-31 11 -19 12 -18 25 6 11 22 10 29 -5 52 -18 25 -28 43 -74 135 -11 21 -22
50 -24 64 -3 14 -9 33 -15 43 -16 31 -14 246 4 364 9 61 19 137 22 170 2 33 9
76 15 95 6 19 13 62 16 95 19 206 23 238 31 244 5 3 8 16 7 29 -1 12 2 22 6
22 5 0 6 9 3 20 -4 16 0 20 17 20 13 0 20 5 17 13 -2 6 3 21 12 31 9 11 10 16
3 12 -8 -5 -30 10 -62 43 -27 28 -58 51 -69 51 -10 0 -32 -15 -49 -34z"/>
<path d="M9772 17238 c-7 -7 -12 -9 -12 -5 0 4 -10 3 -21 -4 -16 -8 -23 -8
-29 1 -5 8 -11 7 -23 -4 -18 -19 -37 -21 -37 -5 0 8 -5 7 -16 -2 -13 -10 -17
-10 -25 2 -6 10 -9 10 -9 2 0 -7 -6 -13 -12 -13 -7 0 -35 -11 -63 -24 l-50
-25 35 1 c46 0 72 7 65 19 -4 5 -1 9 4 9 6 0 11 -4 11 -10 0 -5 7 -7 15 -4 9
4 15 0 15 -10 0 -18 15 -22 25 -6 8 13 25 13 25 1 0 -5 -30 -19 -66 -31 -36
-12 -64 -24 -62 -26 6 -6 101 22 135 39 18 10 38 17 46 17 13 0 89 33 117 50
8 6 26 15 39 20 13 6 21 13 19 16 -3 3 -34 -9 -69 -26 -35 -17 -70 -28 -77
-25 -7 3 -20 -2 -28 -10 -19 -19 -40 -19 -47 -1 -4 10 -1 13 8 10 7 -3 26 3
41 12 15 10 34 19 42 20 18 3 41 24 26 24 -5 0 -15 -5 -22 -12z"/>
<path d="M7657 16775 c-5 -11 -14 -14 -34 -9 -25 7 -27 6 -14 -9 9 -11 10 -17
2 -18 -6 -1 -15 -3 -21 -4 -5 -1 -14 -3 -20 -4 -5 0 -7 -8 -4 -16 4 -8 2 -15
-4 -15 -6 0 -8 -9 -5 -20 3 -12 -2 -29 -11 -39 -12 -13 -15 -27 -10 -45 4 -18
2 -26 -7 -26 -11 0 -11 -3 1 -10 10 -6 11 -10 3 -10 -8 0 -11 -11 -9 -30 2
-16 -2 -31 -8 -34 -7 -3 -7 -8 3 -14 10 -7 10 -14 2 -30 -9 -17 -7 -23 14 -36
14 -9 25 -21 25 -28 0 -6 8 -18 18 -27 10 -9 21 -24 25 -34 4 -9 15 -20 24
-24 10 -4 21 -12 25 -18 6 -9 21 -10 60 -3 82 15 85 17 60 34 -12 8 -22 24
-22 36 0 11 -8 22 -19 25 -22 6 -33 47 -18 62 8 8 6 11 -6 11 -9 0 -17 5 -17
11 0 5 -4 7 -10 4 -5 -3 -10 1 -10 9 0 10 6 13 16 9 14 -5 14 -3 2 16 -7 12
-21 20 -32 19 -14 -2 -20 4 -21 20 -1 16 4 22 19 23 12 0 16 3 9 5 -14 6 -6
67 13 106 8 15 14 37 14 50 0 17 3 19 9 9 5 -8 11 -9 15 -3 3 6 2 14 -4 17 -6
4 -8 15 -5 26 4 10 2 19 -4 19 -5 0 -16 3 -24 6 -8 3 -17 -2 -20 -11z"/>
<path d="M13820 16332 c0 -10 -52 -32 -70 -29 -8 1 -20 6 -26 9 -12 8 -79
-121 -88 -172 -6 -31 -5 -33 7 -18 8 10 17 15 20 11 4 -3 14 0 22 7 12 10 19
10 27 2 11 -11 55 7 86 36 7 6 18 12 23 12 6 0 8 8 5 18 -3 9 -8 36 -11 60 -4
32 -2 44 10 48 17 7 21 24 5 24 -5 0 -10 -3 -10 -8z"/>
<path d="M7806 16263 c-4 -9 -1 -20 6 -25 10 -6 8 -8 -4 -8 -19 0 -23 -11 -11
-24 4 -4 8 -17 8 -29 2 -32 15 -57 31 -57 7 0 27 -8 44 -19 24 -14 40 -17 71
-11 21 4 41 4 44 0 2 -4 19 -7 36 -8 43 -1 49 -10 40 -59 -5 -24 -4 -43 1 -43
4 0 5 -12 2 -26 -5 -19 -3 -25 6 -22 13 4 21 98 8 98 -4 0 -5 7 -2 15 3 7 -6
29 -20 48 -14 19 -26 38 -26 44 0 5 -18 35 -40 65 -32 46 -43 55 -63 51 -13
-3 -41 2 -62 11 -48 20 -61 20 -69 -1z"/>
<path d="M13553 16127 l5 -39 -31 6 -31 6 32 -26 c25 -21 30 -30 20 -41 -6 -8
-10 -34 -10 -58 1 -25 -2 -45 -8 -45 -5 0 -10 -15 -11 -32 0 -33 0 -33 -11 -8
-15 35 -22 7 -9 -32 7 -20 8 -35 2 -41 -6 -6 -8 -22 -5 -36 3 -15 -3 -42 -16
-66 -20 -40 -30 -136 -10 -105 5 8 10 27 10 41 0 14 6 34 14 44 13 17 18 10
64 -87 36 -77 63 -120 97 -152 26 -25 52 -46 57 -46 6 0 -5 15 -24 33 -61 58
-137 189 -143 248 -1 9 -5 28 -9 43 -4 16 -2 26 4 26 7 0 8 22 4 65 -5 46 -3
69 6 80 8 9 9 15 2 15 -8 0 -8 9 0 30 5 17 8 37 4 45 -3 8 -1 17 4 20 5 3 11
-3 13 -12 3 -10 4 17 3 60 -1 42 2 77 6 77 4 0 8 6 8 14 0 9 -9 14 -21 13 -18
-1 -20 -6 -16 -40z"/>
<path d="M11330 15971 c0 -6 -9 -11 -19 -11 -28 0 -116 -83 -108 -102 4 -13
17 -15 59 -12 29 3 59 7 66 9 7 3 34 0 60 -5 44 -10 47 -13 47 -43 0 -21 -5
-32 -15 -33 -36 -3 -58 -16 -53 -32 4 -10 3 -14 -2 -10 -7 7 -65 -18 -65 -28
0 -3 5 -2 10 1 6 4 17 1 26 -5 11 -10 12 -16 3 -26 -16 -19 -29 -17 -29 3 0
13 -3 14 -12 5 -7 -7 -20 -12 -29 -12 -9 0 -19 -7 -23 -15 -3 -8 -10 -15 -15
-15 -6 0 -8 7 -5 15 4 8 1 15 -5 15 -6 0 -11 -5 -11 -11 0 -6 -9 -8 -20 -4
-11 4 -20 2 -20 -4 0 -6 -5 -11 -11 -11 -6 0 -9 7 -5 15 6 17 -9 21 -19 4 -4
-6 -13 -8 -20 -5 -8 3 -15 0 -17 -6 -2 -6 -13 -8 -26 -4 -18 6 -20 10 -10 25
6 10 23 23 37 29 20 9 21 10 4 6 -23 -5 -33 11 -11 18 6 2 8 10 4 16 -10 16
-26 15 -26 -1 0 -16 -38 -40 -50 -32 -15 9 -12 25 5 25 8 0 15 4 15 9 0 5 -30
9 -67 8 -38 0 -87 2 -110 5 -49 6 -60 0 -35 -18 16 -13 16 -13 0 -14 -18 0
-26 -20 -8 -20 5 0 7 -7 4 -15 -4 -9 0 -15 10 -15 9 0 16 -8 16 -20 0 -11 -2
-20 -5 -20 -5 0 -55 43 -91 78 -15 14 -34 16 -34 3 0 -5 -9 -7 -21 -4 -12 3
-18 11 -15 19 8 21 -17 17 -31 -5 -10 -16 -8 -18 19 -19 16 0 36 -7 45 -14 14
-11 13 -13 -8 -19 -24 -7 -24 -7 -2 -8 22 -1 23 -4 14 -50 -1 -2 -8 2 -17 9
-8 8 -14 9 -13 4 4 -22 -2 -33 -15 -28 -8 3 -12 12 -9 20 3 8 0 14 -6 14 -6 0
-11 7 -11 16 0 24 -18 7 -25 -25 -6 -30 -30 -48 -40 -31 -4 6 -1 10 5 10 7 0
10 7 6 15 -3 8 0 15 6 15 9 0 9 3 0 12 -10 10 -14 10 -21 0 -4 -7 -15 -10 -23
-7 -9 4 -18 0 -22 -10 -3 -9 -10 -13 -16 -10 -5 3 -20 -1 -32 -9 -12 -9 -27
-16 -33 -16 -5 0 -3 5 5 10 13 9 13 11 0 20 -8 6 -24 8 -35 5 -11 -3 -27 -7
-34 -9 -22 -4 -25 -26 -4 -26 14 0 15 -2 4 -9 -8 -5 -10 -14 -6 -21 5 -8 3
-11 -6 -8 -8 3 -13 10 -12 16 6 25 -27 17 -58 -13 -19 -19 -43 -34 -54 -34
-20 0 -20 0 -1 14 20 15 20 15 0 15 -10 0 -25 -9 -32 -20 -7 -12 -8 -20 -2
-20 5 0 10 -4 10 -10 0 -5 -16 -1 -35 10 -40 22 -55 25 -55 10 0 -5 7 -10 16
-10 24 0 54 -41 40 -56 -11 -12 -30 -9 -22 4 2 4 -7 8 -21 9 -14 0 -29 7 -33
14 -7 10 -14 10 -39 -1 -17 -7 -31 -16 -31 -21 0 -14 16 -11 30 6 17 21 27 19
33 -6 5 -17 2 -20 -13 -16 -18 5 -24 -3 -48 -64 -6 -16 -29 -35 -62 -51 -50
-25 -51 -25 -30 -3 16 17 18 24 8 29 -7 3 -2 4 12 1 32 -5 53 8 55 34 1 15 -4
21 -19 20 -12 0 -15 -3 -8 -6 6 -2 12 -12 12 -20 0 -10 -6 -13 -16 -9 -9 3
-23 6 -32 6 -13 0 -13 3 4 16 17 14 17 15 1 10 -10 -3 -21 -6 -23 -6 -2 0 -4
-7 -4 -15 0 -20 -18 -19 -22 0 -2 12 -14 8 -56 -19 -30 -19 -64 -37 -78 -40
-13 -4 -24 -14 -24 -22 0 -10 -6 -14 -15 -10 -9 3 -15 0 -15 -9 0 -8 -4 -15
-10 -15 -16 0 1 34 29 57 24 21 24 23 6 24 -19 0 -18 1 3 11 12 6 22 15 22 20
0 11 -17 10 -24 -1 -3 -5 -18 -12 -33 -15 -16 -4 -42 -14 -60 -23 -36 -19 -53
-12 -32 13 13 16 12 16 -9 3 -12 -8 -20 -19 -18 -25 2 -6 -8 -11 -24 -11 -34
0 -100 -39 -100 -60 0 -9 -6 -13 -15 -9 -10 4 -19 -2 -25 -17 -5 -12 -18 -33
-29 -47 -18 -22 -22 -24 -41 -12 -19 12 -24 11 -35 -5 -12 -16 -11 -20 8 -30
22 -12 22 -12 -4 -13 -34 0 -60 -29 -52 -59 3 -13 1 -26 -5 -30 -5 -3 -12 -24
-14 -46 -3 -29 -10 -43 -26 -51 -22 -11 -20 -27 3 -18 21 9 26 -35 4 -46 -20
-11 -26 -30 -9 -30 6 0 19 9 30 20 l20 20 0 -20 c0 -11 -7 -20 -15 -20 -8 0
-15 -5 -15 -11 0 -7 9 -5 24 5 30 19 56 11 56 -18 0 -14 -3 -17 -8 -8 -7 9
-13 8 -27 -8 -10 -11 -15 -23 -12 -26 4 -4 9 1 13 10 11 28 23 7 17 -32 -5
-35 -5 -36 10 -17 14 18 16 18 22 4 4 -11 -3 -26 -20 -44 -15 -14 -24 -29 -21
-32 4 -4 12 -1 18 5 7 7 15 12 19 12 11 0 18 -39 8 -46 -5 -3 -9 -10 -9 -16 0
-7 5 -7 14 1 11 9 18 5 36 -24 12 -19 26 -32 32 -29 6 4 14 1 18 -7 10 -14 48
-20 56 -7 7 11 44 10 44 -1 0 -5 -6 -12 -12 -14 -10 -4 -10 -6 -1 -6 19 -1 53
40 53 65 0 13 5 26 10 29 6 3 10 -3 10 -14 0 -12 5 -21 10 -21 6 0 10 4 10 10
0 14 63 39 75 29 9 -7 36 -6 55 1 3 1 8 2 13 1 4 0 7 6 7 14 0 9 9 15 24 15
14 0 28 5 31 10 4 6 11 8 16 4 6 -3 5 3 -2 14 -10 16 -10 23 4 36 20 20 34 21
17 1 -7 -9 -11 -17 -9 -18 2 -1 12 -8 21 -15 14 -11 16 -10 11 7 -3 12 -1 21
6 21 18 0 24 -26 11 -51 -11 -20 -10 -21 6 -14 11 4 29 10 42 12 12 3 22 12
22 19 0 8 5 14 11 14 6 0 9 -7 5 -15 -3 -8 -1 -15 4 -15 6 0 10 -7 10 -15 0
-21 27 -49 68 -69 19 -10 30 -21 26 -28 -7 -11 4 -10 51 7 20 7 20 6 1 -9 -11
-9 -16 -19 -12 -23 4 -4 11 -2 15 5 4 7 13 12 20 10 9 -2 14 14 16 52 2 30 6
66 10 80 6 23 5 24 -8 8 -8 -10 -17 -18 -20 -18 -9 0 2 73 13 84 6 6 10 16 10
24 0 12 -3 12 -15 2 -12 -10 -15 -10 -15 3 0 23 21 32 32 13 9 -16 29 -23 27
-8 -5 29 3 32 106 32 58 0 138 -7 178 -15 40 -8 92 -16 117 -18 25 -2 52 -6
60 -10 14 -5 70 -11 230 -23 36 -3 70 -7 76 -9 7 -2 40 2 74 9 34 7 72 11 86
8 13 -2 24 0 24 6 0 5 17 10 38 11 68 2 87 5 93 13 3 5 48 9 100 10 52 1 99 5
104 8 12 9 125 11 125 3 0 -3 -10 -14 -21 -24 l-22 -19 27 -24 c25 -25 33 -38
18 -33 -16 5 -14 -10 6 -49 12 -23 22 -62 24 -87 2 -25 5 -43 7 -41 2 2 10 -1
16 -6 9 -7 16 -6 24 4 8 10 9 16 1 21 -5 3 -10 22 -10 41 0 21 -4 33 -10 29
-15 -9 -12 11 4 24 15 13 27 -6 30 -47 2 -26 22 -43 43 -35 15 6 18 23 3 23
-5 0 -10 8 -10 18 1 16 1 16 11 0 5 -10 17 -18 25 -18 8 0 13 -4 9 -9 -3 -5
-1 -12 4 -15 5 -3 11 3 14 14 3 13 0 20 -9 20 -8 0 -14 5 -14 10 0 13 26 13
53 -1 29 -16 38 -30 32 -54 -3 -11 -2 -14 1 -7 3 6 12 12 20 12 10 0 9 5 -6
20 -21 21 -27 50 -10 50 6 0 10 -7 10 -17 0 -9 3 -13 7 -10 3 4 17 -2 29 -14
16 -15 31 -20 48 -17 28 6 36 -6 10 -16 -8 -3 -24 -2 -34 4 -13 7 -21 5 -31
-7 -12 -15 -12 -16 3 -10 10 3 20 2 23 -3 3 -5 18 -5 35 0 27 8 29 6 37 -23 4
-18 8 -39 8 -47 1 -16 37 -15 43 1 2 5 15 9 28 9 13 0 24 5 24 10 0 6 -7 10
-15 10 -19 0 -19 7 -1 26 19 18 27 18 20 -1 -4 -8 -1 -15 5 -15 6 0 11 16 11
35 0 34 12 46 25 25 3 -5 1 -10 -4 -10 -6 0 -11 -7 -11 -15 0 -8 7 -15 15 -15
8 0 15 -5 15 -11 0 -6 -7 -9 -15 -5 -8 3 -15 1 -15 -4 0 -16 15 -18 45 -5 17
7 25 14 18 14 -21 2 -36 40 -22 57 13 16 59 19 59 4 0 -5 -9 -10 -20 -10 -11
0 -20 -4 -20 -9 0 -14 35 -19 55 -8 16 8 17 6 11 -19 -4 -18 -3 -24 2 -16 7
11 10 11 15 -3 5 -12 11 -14 26 -6 10 6 21 7 25 4 6 -6 9 11 9 49 0 10 4 15 8
12 5 -3 9 -11 9 -18 0 -8 6 -18 13 -24 10 -9 13 1 12 51 -1 41 4 68 13 80 9 9
11 17 5 17 -19 0 -2 46 18 47 11 1 17 -2 14 -7 -3 -5 -1 -11 4 -14 5 -4 12 -2
16 3 3 6 13 7 23 4 15 -6 15 -5 4 10 -8 9 -11 21 -7 27 8 12 -32 10 -52 -3
-15 -9 -15 -1 -3 28 5 11 9 14 9 8 1 -14 30 -18 32 -5 6 43 4 100 -3 114 -6
12 -4 27 6 45 l14 28 11 -28 c6 -16 11 -47 11 -70 0 -30 3 -38 11 -30 13 13 2
133 -12 133 -5 0 -9 5 -9 10 0 22 17 8 39 -30 15 -27 29 -40 44 -40 l21 0 -22
16 c-12 8 -29 28 -37 44 -8 16 -26 40 -38 52 -32 32 -48 73 -35 86 8 8 6 13
-8 18 -21 8 -68 54 -61 60 2 3 10 -2 17 -11 7 -8 19 -15 28 -15 14 0 14 2 0
18 -9 9 -13 22 -11 29 2 6 -1 15 -8 19 -9 5 -10 2 -6 -9 8 -22 -2 -21 -33 3
-18 15 -20 18 -6 14 13 -5 17 -3 14 7 -3 8 -12 14 -20 14 -9 0 -25 11 -37 25
-13 16 -20 20 -21 11 0 -8 8 -23 18 -34 16 -20 16 -20 -1 -14 -10 4 -23 7 -28
7 -5 0 -9 10 -9 23 0 13 -11 34 -25 47 -14 13 -25 19 -25 15 0 -5 -7 1 -16 13
-8 12 -19 20 -24 17 -4 -2 -18 3 -31 13 -13 10 -37 17 -52 16 -17 -2 -30 3
-34 12 -5 13 -8 12 -26 -3 -11 -10 -17 -12 -13 -5 5 8 0 12 -14 12 -17 0 -19
2 -8 14 7 7 20 11 28 8 10 -3 12 -2 5 6 -14 15 -65 3 -59 -13 4 -9 -4 -12 -23
-11 -34 2 -76 24 -68 35 8 14 -21 21 -34 8 -8 -8 -5 -14 11 -24 l23 -12 -22
-1 c-22 0 -27 9 -24 38 1 6 -3 12 -9 12 -5 0 -10 7 -10 16 0 14 -3 14 -15 4
-13 -11 -14 -10 -9 5 5 12 4 16 -3 12 -6 -4 -21 2 -34 12 -23 17 -64 32 -101
36 -10 1 -27 10 -38 20 -11 10 -20 13 -20 7 0 -22 -22 -12 -56 24 -27 30 -38
36 -61 31 -35 -7 -73 17 -55 35 9 9 12 9 12 0 0 -7 7 -12 16 -12 14 0 14 3 4
15 -9 11 -9 15 -1 15 7 0 9 5 6 10 -3 6 1 10 10 10 12 0 15 -5 11 -16 -10 -26
3 -35 28 -19 12 8 26 12 29 8 4 -3 7 1 7 11 0 14 -4 15 -20 6 -15 -8 -20 -8
-20 3 0 8 18 19 40 26 27 8 45 21 55 41 8 16 24 34 36 40 20 11 20 12 1 28
-59 50 -61 51 -66 39 -2 -7 -5 -4 -5 6 -1 9 -9 17 -19 17 -10 0 -27 7 -39 15
-12 8 -28 12 -37 9 -11 -4 -16 -1 -16 10 0 9 -6 16 -12 17 -7 1 -29 2 -48 3
-19 2 -56 6 -82 10 -32 5 -48 4 -48 -3z m-431 -402 c20 -19 24 -20 39 -5 25
22 74 15 79 -12 2 -19 -1 -21 -30 -16 -17 3 -28 2 -22 -3 14 -11 19 -47 6 -38
-6 3 -11 2 -11 -4 0 -15 -42 -10 -64 8 -18 15 -19 15 -13 -4 7 -19 7 -19 -8
-1 -13 18 -16 18 -40 2 -14 -9 -25 -13 -25 -9 1 15 27 43 41 44 9 0 10 2 2 5
-6 3 -26 -2 -43 -11 -18 -9 -34 -14 -38 -11 -3 3 0 6 6 6 7 0 12 4 12 10 0 5
-7 7 -14 4 -13 -5 -13 -2 -3 20 14 30 25 32 53 11 10 -8 28 -14 39 -14 19 0
19 0 2 10 -9 6 -15 14 -12 20 9 14 19 11 44 -12z m-44 -329 c11 -9 15 -9 15
-1 0 7 18 11 50 10 28 -1 50 -7 50 -13 0 -6 5 -5 12 2 16 16 28 15 28 -3 0
-16 41 -17 56 -2 4 4 20 -5 36 -20 22 -21 28 -23 28 -10 0 20 -1 20 39 6 25
-9 31 -16 31 -40 0 -20 -4 -27 -13 -23 -8 3 -20 -2 -27 -11 -10 -12 -10 -15 4
-15 10 0 14 5 11 10 -8 13 23 8 54 -9 21 -11 26 -11 35 1 15 18 47 11 44 -10
-2 -9 3 -16 10 -14 6 1 12 -2 12 -8 0 -5 -7 -10 -15 -10 -8 0 -15 -4 -15 -9 0
-13 39 -21 73 -14 22 5 28 3 23 -6 -5 -7 -14 -10 -21 -7 -7 2 -16 -2 -20 -11
-4 -13 -8 -14 -17 -5 -7 7 -37 12 -67 11 -38 0 -49 -3 -36 -8 16 -7 13 -9 -18
-15 -20 -4 -41 -4 -46 -1 -6 3 -12 1 -16 -5 -4 -6 -10 -8 -14 -6 -18 11 -70
15 -76 6 -8 -13 -112 -13 -120 0 -3 6 3 10 15 10 12 0 19 4 15 9 -9 15 -177 9
-183 -7 -2 -6 -13 -12 -24 -12 -17 0 -18 -3 -8 -15 10 -13 9 -15 -9 -15 -11 0
-21 4 -21 10 0 17 -81 3 -95 -16 -9 -13 -27 -18 -66 -19 -46 0 -54 3 -53 18 2
14 -5 17 -33 15 -21 -1 -38 3 -43 12 -14 22 6 36 24 18 10 -10 25 -13 43 -10
28 6 28 6 -9 16 -44 11 -50 25 -10 27 23 2 24 2 5 6 -26 5 -27 7 -13 34 6 10
18 19 28 19 25 1 65 35 60 51 -6 18 13 36 46 45 14 3 26 10 26 15 0 5 11 9 24
9 14 0 28 5 31 11 4 6 24 9 46 8 21 -2 41 -1 44 3 9 9 55 1 70 -12z"/>
<path d="M10307 15964 c-4 -4 -30 -11 -59 -15 -41 -7 -59 -16 -81 -41 -16 -18
-34 -33 -40 -34 -7 0 -20 -2 -31 -2 -15 -2 -16 -5 -6 -17 7 -9 11 -18 8 -21
-10 -9 47 -64 67 -64 16 0 17 -2 5 -10 -8 -5 -11 -10 -6 -10 5 0 3 -7 -4 -15
-10 -12 -10 -15 4 -15 9 0 16 5 16 10 0 18 18 10 23 -10 3 -11 16 -24 30 -29
14 -5 27 -16 30 -23 5 -11 7 -11 15 0 7 10 14 11 35 1 17 -8 31 -9 39 -2 14
10 40 10 103 -1 22 -3 34 -3 28 0 -7 3 -13 11 -13 18 0 17 -37 35 -78 40 -42
4 -68 26 -32 26 l24 0 -22 16 c-12 8 -26 13 -31 10 -5 -4 -20 -1 -33 4 -22 10
-22 10 5 7 15 -3 27 0 27 4 0 5 7 9 16 9 8 0 12 5 9 10 -4 7 -12 7 -25 0 -26
-14 -37 7 -14 25 23 17 34 19 34 4 0 -8 4 -8 13 -1 7 6 58 9 120 8 59 -1 107
1 107 4 0 12 -66 68 -99 85 -20 10 -56 16 -92 16 -32 0 -61 4 -64 10 -7 11
-19 12 -28 3z"/>
<path d="M10300 14353 c0 -12 -5 -25 -12 -29 -8 -5 -9 0 -6 14 4 15 2 22 -8
22 -8 0 -14 -9 -14 -19 0 -10 -7 -21 -15 -25 -9 -3 -12 -12 -8 -22 4 -12 3
-15 -5 -10 -7 4 -12 1 -12 -8 0 -12 10 -16 38 -16 28 0 34 3 22 11 -12 8 -12
10 4 7 28 -4 30 -23 5 -47 -26 -24 -19 -41 8 -20 15 12 16 12 10 -5 -6 -14 -4
-17 9 -12 8 3 28 -1 45 -9 16 -9 39 -13 53 -9 22 5 24 3 19 -17 -5 -19 -3 -21
15 -17 12 4 22 3 22 -1 0 -4 16 -6 35 -6 26 1 34 -2 31 -12 -4 -10 3 -12 34
-7 43 7 54 -7 23 -25 -14 -8 -10 -9 17 -4 19 3 46 14 59 25 29 22 48 24 27 2
-9 -8 -16 -17 -16 -18 0 -6 177 1 187 7 6 4 14 3 18 -2 3 -6 -10 -13 -30 -17
-19 -3 -35 -8 -35 -10 0 -2 9 -13 20 -24 18 -18 20 -18 29 -2 8 14 13 15 30 5
25 -16 31 -16 31 -3 0 6 -7 10 -15 10 -8 0 -15 4 -15 8 0 12 64 1 72 -12 5 -8
8 -7 8 2 0 6 5 12 10 12 6 0 10 -7 10 -16 0 -13 3 -14 14 -4 8 6 12 18 9 26
-3 9 1 14 12 14 13 0 16 -6 12 -21 -5 -19 -2 -21 26 -16 18 2 41 1 52 -3 20
-7 28 -1 70 55 15 19 15 19 9 -7 -5 -22 -2 -28 10 -28 9 0 16 -4 16 -10 0 -5
5 -10 11 -10 6 0 8 7 5 16 -3 9 -2 12 4 9 18 -11 60 -16 60 -6 0 5 -10 12 -22
15 -21 7 -20 8 12 20 19 7 40 11 45 7 13 -7 75 -9 75 -2 0 3 12 11 26 18 20 9
26 9 31 -3 3 -8 9 -14 14 -14 4 0 6 7 2 16 -5 13 -2 15 16 9 16 -5 28 0 45 18
17 18 27 22 39 15 12 -6 22 -3 37 12 11 11 18 25 15 30 -3 5 -1 11 5 15 6 3
13 -1 16 -9 3 -9 10 -14 15 -11 12 8 -1 35 -17 35 -8 0 -19 12 -25 28 -6 15
-13 22 -16 16 -4 -12 -43 -7 -43 5 0 4 6 13 13 20 10 11 9 13 -1 7 -7 -4 -31
-9 -53 -11 -23 -3 -47 -9 -54 -15 -6 -5 -14 -7 -17 -4 -3 3 -23 -2 -43 -11
-21 -8 -40 -13 -43 -11 -2 3 -16 0 -30 -5 -42 -16 -185 -20 -194 -6 -6 9 -8 9
-8 -1 0 -10 -5 -10 -20 -2 -14 7 -20 7 -20 0 0 -5 -5 -10 -11 -10 -5 0 -8 4
-5 8 6 10 -30 9 -40 -1 -11 -11 -42 -8 -50 5 -5 8 0 9 14 6 12 -4 22 -2 22 3
0 5 -16 9 -35 9 -19 0 -35 -4 -35 -10 0 -5 -4 -10 -10 -10 -5 0 -10 9 -10 20
0 11 -5 20 -11 20 -6 0 -9 -7 -6 -15 4 -8 2 -17 -4 -20 -5 -4 -12 1 -15 10 -4
8 -11 15 -18 14 -31 -4 -45 2 -40 16 4 8 1 15 -5 15 -6 0 -11 -9 -11 -20 0
-17 -4 -18 -24 -10 -17 6 -26 5 -29 -3 -3 -8 -10 -5 -21 8 -11 15 -15 16 -16
5 0 -16 -63 -18 -195 -7 -68 6 -234 59 -246 79 -6 9 -9 7 -9 -9z"/>
<path d="M12790 14153 c0 -7 4 -23 10 -37 8 -21 7 -24 -7 -19 -12 5 -14 1 -8
-18 3 -13 3 -19 -2 -13 -4 6 -19 17 -31 23 -23 12 -24 12 -17 -21 10 -44 13
-48 38 -49 16 -1 17 -3 5 -6 -10 -2 -15 -10 -11 -19 11 -31 -16 -12 -32 22
-19 40 -31 41 -16 0 6 -15 7 -26 1 -26 -5 0 -12 9 -15 20 -6 18 -16 24 -36 22
-4 -1 -5 7 -2 16 2 10 -5 26 -17 37 l-21 19 11 -29 c7 -20 8 -31 1 -33 -12 -4
-3 -31 16 -51 8 -7 11 -16 8 -19 -3 -4 -10 0 -15 8 -8 13 -10 13 -10 -1 0 -9
7 -22 16 -30 20 -16 34 2 26 35 -5 20 -4 20 22 -3 28 -27 35 -46 11 -37 -8 3
-21 -1 -29 -9 -8 -8 -22 -15 -30 -15 -9 0 -16 -5 -16 -11 0 -5 -5 -7 -11 -3
-8 4 -7 9 2 15 11 6 10 14 -3 41 l-17 33 5 -35 4 -35 -16 35 c-11 24 -12 36
-5 38 9 3 9 8 0 18 -17 21 -31 17 -24 -6 7 -23 -10 -28 -19 -5 -3 8 -10 15
-16 15 -14 0 5 -37 39 -74 22 -24 23 -27 5 -18 -11 6 -26 18 -33 26 -8 9 -17
13 -22 10 -5 -3 -9 -2 -8 3 4 22 -2 32 -16 27 -10 -4 -13 -2 -10 8 7 18 -38
68 -62 68 -22 0 -56 -20 -34 -20 8 0 20 -8 28 -17 13 -17 14 -16 8 4 -5 18 -3
22 9 17 9 -3 16 -9 17 -13 0 -3 2 -16 3 -28 1 -12 13 -31 27 -42 22 -19 20
-23 -13 -24 -23 -1 -48 15 -48 29 0 8 -4 14 -10 14 -15 0 -12 -16 5 -30 8 -7
15 -17 15 -23 0 -6 17 -26 38 -44 26 -23 32 -33 20 -33 -10 0 -22 9 -28 20
-13 23 -30 26 -30 5 0 -8 16 -25 35 -37 42 -28 45 -40 8 -34 -16 2 -32 5 -37
5 -4 1 -5 8 -2 17 4 11 -1 18 -15 21 -11 3 -25 16 -30 29 -4 13 -13 24 -19 24
-13 0 -13 -17 0 -25 6 -3 10 -14 9 -23 0 -11 -3 -12 -6 -4 -2 6 -11 12 -19 12
-8 0 -14 7 -14 17 0 25 -11 9 -16 -25 -3 -18 1 -34 11 -42 28 -23 17 -36 -29
-36 -38 -1 -46 3 -50 21 -6 23 -53 61 -63 51 -3 -2 -16 0 -30 5 -15 6 -31 6
-41 0 -16 -9 -16 -10 1 -17 10 -3 21 -4 24 0 10 10 53 -36 53 -57 0 -15 5 -18
24 -13 14 3 28 1 31 -5 12 -18 -2 -22 -36 -10 -20 7 -37 7 -48 1 -14 -9 -14
-9 2 -10 9 0 17 -7 17 -15 0 -13 3 -13 20 -3 14 9 23 10 28 3 4 -6 18 -16 32
-23 l25 -11 -26 5 c-35 7 -47 -13 -15 -26 26 -9 50 -43 39 -54 -13 -13 -32 -5
-39 16 -3 12 -12 28 -19 35 -7 7 -15 18 -18 25 -4 10 -7 10 -17 1 -11 -10 -10
-14 3 -19 9 -3 17 -11 17 -17 0 -7 -4 -7 -12 1 -7 7 -24 12 -39 12 -23 0 -28
5 -33 34 -4 21 -14 37 -24 39 -13 4 -12 5 5 6 12 0 24 -5 26 -11 3 -7 3 3 0
22 -8 44 -42 89 -68 90 -15 0 -17 2 -7 9 12 7 12 12 1 30 -14 22 -29 28 -29
12 0 -5 6 -11 12 -13 9 -3 8 -9 -5 -22 -9 -10 -17 -21 -17 -25 0 -16 48 -51
62 -46 9 4 18 2 21 -2 3 -5 -7 -14 -23 -20 -24 -9 -29 -8 -40 11 -8 17 -20 22
-46 22 -43 -1 -39 -20 5 -24 22 -2 31 -8 27 -17 -3 -9 3 -12 20 -10 19 2 29
-4 36 -21 6 -13 15 -24 20 -24 4 0 8 -5 8 -11 0 -8 -4 -8 -14 0 -10 8 -16 9
-21 1 -3 -5 -11 -10 -17 -10 -7 0 -7 4 1 14 8 10 8 16 -2 25 -8 6 -16 9 -19 6
-3 -3 -22 -6 -42 -7 -35 -1 -53 -18 -18 -18 24 0 64 -29 56 -42 -3 -5 -14 -8
-24 -5 -10 2 -24 1 -31 -4 -11 -6 -10 -9 4 -15 9 -3 17 -11 17 -16 0 -6 -7 -8
-15 -4 -10 4 -15 -1 -15 -14 0 -16 -7 -20 -32 -21 -29 -1 -30 -2 -9 -8 13 -3
28 -15 32 -26 6 -17 8 -17 8 -3 1 14 8 17 31 14 38 -4 39 7 3 21 l-28 11 26 1
c15 1 32 -6 39 -14 7 -8 16 -12 21 -9 5 3 6 -1 3 -9 -5 -15 20 -47 37 -47 14
0 64 -51 72 -73 4 -11 15 -21 25 -24 19 -4 28 -43 11 -43 -6 0 -8 4 -4 10 3 5
-6 17 -20 26 -14 9 -25 23 -25 31 0 13 -2 13 -17 2 -10 -8 -14 -9 -10 -2 9 15
-33 57 -81 83 -40 22 -62 25 -62 10 0 -5 5 -10 11 -10 6 0 9 -5 7 -12 -3 -7 6
-22 19 -34 25 -23 31 -49 11 -41 -7 2 -12 11 -10 18 2 10 -1 10 -10 -2 -7 -9
-19 -14 -27 -11 -8 3 0 -8 18 -24 119 -106 123 -111 107 -117 -25 -10 -19 -34
14 -64 17 -15 28 -33 26 -40 -3 -7 -1 -13 4 -13 6 0 10 -9 10 -21 0 -11 -4
-18 -9 -15 -5 4 -12 0 -14 -6 -3 -7 -6 -4 -6 8 -1 28 -21 84 -29 82 -25 -5
-40 16 -35 46 3 23 0 36 -13 46 -13 12 -18 12 -21 3 -3 -7 -9 -13 -15 -13 -6
0 -8 7 -4 15 3 9 0 15 -9 15 -9 0 -15 9 -15 22 0 17 -3 19 -12 10 -15 -15 -38
-16 -38 -1 0 5 5 7 10 4 6 -3 10 -2 10 4 0 5 -4 12 -9 16 -5 3 -12 18 -16 34
-4 17 -14 31 -26 34 -19 5 -19 4 -6 -11 18 -21 28 -62 15 -62 -5 0 -6 -4 -3
-10 3 -5 1 -10 -5 -10 -8 0 -8 -6 0 -21 14 -25 3 -41 -11 -17 -12 21 -35 14
-42 -13 -6 -23 -42 -26 -51 -3 -10 25 -6 41 5 22 11 -20 43 -12 35 8 -3 8 -1
14 4 14 15 0 12 30 -5 46 -13 14 -15 13 -15 -5 0 -12 -4 -21 -10 -21 -5 0 -10
7 -10 15 0 8 -4 15 -8 15 -4 0 -13 15 -20 34 -9 23 -20 35 -37 38 -14 3 -25 1
-25 -3 0 -5 3 -9 8 -9 4 0 16 -8 27 -16 20 -15 20 -16 -10 -40 -20 -16 -25
-24 -14 -24 17 0 42 -46 54 -99 5 -26 4 -32 -6 -29 -8 3 -13 14 -11 24 2 19 2
19 -12 0 -14 -18 -15 -17 -22 8 -7 28 -24 36 -24 10 0 -11 -6 -14 -21 -9 -19
6 -21 4 -16 -14 3 -11 1 -21 -4 -21 -5 0 -9 9 -9 20 0 11 -5 20 -11 20 -6 0
-9 -7 -5 -15 3 -8 1 -15 -5 -15 -7 0 -9 10 -5 24 5 20 3 23 -13 19 -11 -3 -21
2 -24 11 -4 9 -3 16 1 16 4 0 8 10 9 23 2 21 1 22 -13 2 -13 -18 -15 -18 -31
-2 -13 13 -14 20 -6 28 9 9 8 15 -2 25 -19 20 -24 17 -18 -8 5 -19 3 -21 -8
-10 -7 6 -23 12 -36 12 -13 0 -23 5 -23 10 0 6 -5 10 -10 10 -6 0 -3 -12 6
-26 15 -22 15 -27 3 -35 -8 -5 -23 -7 -35 -4 -33 8 -37 -7 -6 -25 16 -10 29
-25 29 -34 0 -22 -14 -20 -29 3 -6 10 -17 17 -24 14 -12 -4 -13 9 -5 60 0 4 7
7 14 7 8 0 14 11 14 28 0 25 -4 28 -25 24 -16 -3 -20 -7 -11 -12 18 -12 3 -40
-22 -40 -12 0 -23 -8 -26 -20 -3 -11 -10 -20 -15 -20 -6 0 -8 9 -5 20 3 11 1
20 -3 20 -5 0 -12 9 -15 20 -4 11 -11 18 -16 14 -5 -3 -7 -14 -4 -25 6 -17 4
-18 -20 -9 -33 13 -38 13 -30 0 3 -5 14 -10 23 -10 33 0 45 -15 33 -39 -13
-24 -36 -29 -27 -5 4 10 1 14 -6 11 -7 -2 -12 -12 -12 -21 1 -9 -2 -16 -7 -16
-5 0 -9 -7 -9 -15 0 -8 6 -15 13 -15 6 0 22 -3 35 -6 17 -5 23 -3 22 7 -3 20
11 59 20 59 5 0 15 3 23 6 10 3 16 -3 19 -20 6 -30 -30 -73 -64 -78 -12 -2
-24 -10 -26 -18 -5 -13 -3 -13 11 -1 15 12 17 11 17 -13 0 -14 -5 -26 -11 -26
-5 0 -7 6 -3 13 6 10 4 10 -7 0 -20 -19 -32 -16 -26 7 3 13 0 20 -8 20 -8 0
-15 12 -17 28 -2 19 -9 28 -25 30 -16 2 -23 -2 -23 -12 0 -9 -4 -16 -10 -16
-5 0 -10 8 -10 18 0 11 -9 27 -20 37 -19 17 -22 38 -7 61 7 12 -1 24 -15 24
-5 0 -7 -4 -3 -9 3 -6 -4 -9 -15 -8 -11 1 -20 6 -20 11 0 6 -5 5 -12 -2 -15
-15 -28 -16 -28 -2 0 6 7 10 15 10 8 0 15 6 15 13 0 8 4 7 10 -3 8 -13 10 -13
10 1 0 9 -7 23 -16 30 -14 11 -18 10 -30 -5 -7 -10 -15 -24 -17 -30 -2 -6 -7
-8 -11 -4 -4 3 -3 16 4 27 8 16 8 21 -2 21 -7 0 -19 -13 -26 -30 -8 -16 -17
-30 -21 -30 -9 0 -8 31 2 47 5 7 -4 11 -27 11 -26 0 -33 -4 -29 -14 3 -8 0
-14 -6 -14 -6 0 -11 8 -11 19 0 11 -9 21 -21 24 -16 4 -19 11 -14 26 3 12 2
21 -3 21 -20 0 -21 -41 -1 -58 10 -9 19 -22 19 -29 0 -7 7 -13 15 -13 17 0 18
-30 4 -70 -8 -22 -8 -21 -4 8 4 31 3 33 -18 26 -19 -6 -20 -5 -9 9 8 9 11 21
7 27 -12 19 -25 10 -25 -18 0 -44 -18 -55 -49 -31 -19 15 -25 28 -23 50 3 23
0 28 -12 23 -9 -3 -16 -10 -16 -15 0 -5 -7 -9 -15 -9 -8 0 -20 -10 -26 -22 -8
-14 -14 -18 -17 -10 -2 6 -8 10 -13 6 -5 -3 -9 2 -9 11 0 11 5 15 15 11 9 -3
15 0 15 10 0 11 6 13 20 9 11 -4 20 -2 20 4 0 13 1 13 -67 16 -45 1 -53 -1
-53 -16 0 -10 5 -21 10 -24 18 -11 11 -27 -10 -22 -17 4 -20 0 -20 -29 0 -27
-5 -37 -22 -43 -24 -9 -52 4 -42 20 3 5 0 17 -6 26 -9 14 -10 14 -7 2 3 -9 -3
-23 -14 -32 -10 -9 -16 -23 -13 -31 3 -8 1 -17 -4 -20 -6 -3 -12 0 -15 8 -8
21 4 56 19 56 8 0 14 4 14 10 0 11 -28 9 -48 -4 -7 -4 -16 -5 -20 -1 -3 3 0
10 8 15 8 5 11 12 7 16 -4 4 -15 0 -25 -9 -15 -16 -15 -19 -2 -27 21 -14 -1
-27 -39 -24 -22 1 -28 -2 -24 -12 6 -16 23 -19 23 -4 0 6 5 10 10 10 6 0 10
-9 10 -21 0 -16 4 -19 21 -14 14 5 25 2 30 -6 14 -22 10 -33 -6 -19 -8 6 -20
10 -27 8 -7 -3 -19 2 -27 10 -13 12 -16 11 -24 -9 -9 -23 -10 -23 -16 -4 -8
19 -8 19 -18 0 -8 -14 -20 -19 -44 -17 -18 1 -36 -3 -41 -10 -6 -10 -8 -8 -8
5 0 9 -4 17 -10 17 -5 0 -10 -5 -10 -12 0 -6 -3 -8 -7 -5 -4 4 -13 -7 -22 -25
l-15 -33 -4 33 c-2 17 -8 32 -14 32 -6 0 -8 13 -4 34 4 21 2 36 -4 38 -23 7 2
59 41 85 48 32 85 83 59 83 -5 0 -10 -7 -10 -15 0 -8 -5 -15 -10 -15 -16 0
-89 -70 -95 -91 -8 -26 -25 -24 -25 2 0 15 -4 19 -16 15 -9 -3 -28 -6 -42 -6
-20 0 -23 -3 -12 -9 8 -6 18 -7 22 -5 4 3 8 0 8 -5 0 -6 -9 -11 -20 -11 -11 0
-20 -7 -20 -16 0 -10 7 -14 23 -12 13 2 22 -2 21 -9 -1 -7 -2 -24 -2 -38 -2
-26 -22 -36 -22 -10 0 8 -7 15 -16 15 -8 0 -13 4 -10 9 8 12 -17 61 -29 58 -5
-2 -10 -23 -11 -46 -1 -24 -6 -46 -11 -50 -5 -3 -12 -14 -16 -24 -4 -10 -11
-15 -17 -12 -6 4 -8 10 -5 14 2 4 -8 7 -23 7 -15 -1 -35 5 -45 14 -17 14 -21
13 -41 -13 l-23 -28 0 30 c0 24 5 30 31 37 l31 7 -28 4 c-19 3 -27 10 -25 21
5 26 33 53 50 47 11 -4 17 2 21 24 5 22 11 29 22 25 19 -8 20 3 2 21 -19 18
-39 3 -39 -29 0 -14 -4 -26 -9 -26 -5 0 -9 5 -9 10 0 6 -5 10 -10 10 -6 0 -10
-6 -8 -12 4 -19 -45 -65 -64 -60 -10 2 -18 7 -18 12 0 5 8 13 18 19 13 7 14
13 6 21 -8 8 -14 9 -18 1 -11 -17 -26 -13 -20 4 4 8 23 18 43 21 26 4 40 13
49 32 6 14 11 27 9 28 -7 8 -57 -10 -54 -20 2 -6 -3 -16 -11 -22 -12 -8 -22
-7 -44 5 -27 16 -38 41 -17 41 5 0 7 -6 4 -12 -4 -7 0 -5 8 5 11 13 26 18 50
16 19 -2 45 4 57 12 22 14 21 15 -28 13 -47 -1 -50 0 -39 17 13 20 37 26 37 8
0 -11 38 -3 55 12 6 6 -3 7 -23 3 -21 -4 -32 -3 -32 5 0 6 -9 11 -20 11 -11 0
-20 -6 -20 -13 0 -11 -21 -34 -46 -49 -5 -4 -16 -3 -23 2 -11 6 -6 12 16 23
29 16 92 97 74 97 -5 0 -12 -8 -15 -18 -7 -21 -78 -64 -97 -59 -8 2 -11 2 -6
0 10 -6 9 -33 -1 -33 -4 0 -12 4 -18 9 -5 5 -25 11 -44 13 -19 2 -33 8 -30 13
3 6 20 8 39 7 27 -3 33 -1 28 12 -4 9 1 20 11 25 16 10 16 10 0 11 -10 0 -18
-4 -18 -10 0 -5 -7 -10 -15 -10 -9 0 -12 6 -9 15 5 11 2 13 -10 9 -9 -3 -16
-10 -16 -16 0 -5 -4 -7 -10 -3 -13 8 -1 35 16 35 8 0 14 4 14 9 0 5 9 13 20
16 34 11 11 25 -33 21 -51 -5 -137 -41 -137 -57 0 -8 -12 -9 -37 -4 -21 4 -35
3 -31 -1 4 -4 3 -13 -3 -21 -14 -16 2 -18 19 -1 6 6 15 8 19 5 4 -4 -1 -15
-10 -24 -12 -13 -19 -14 -30 -4 -8 6 -22 9 -31 5 -9 -3 -22 -1 -30 5 -14 12
-40 6 -66 -16 -8 -7 -17 -13 -20 -12 -3 0 -17 -4 -32 -10 -20 -7 -28 -7 -28 0
0 7 -12 8 -31 4 -20 -5 -29 -3 -25 3 3 5 -5 10 -19 10 -14 0 -25 -4 -25 -8 0
-8 -73 -5 -111 5 -32 8 -47 -10 -21 -24 11 -6 21 -8 24 -6 2 2 24 -2 48 -10
l45 -14 -37 0 c-39 -1 -55 -21 -17 -21 29 0 52 -26 44 -50 -5 -14 -2 -20 9
-20 18 0 21 -21 7 -36 -6 -5 0 -18 16 -34 l26 -25 -5 25 c-3 14 -9 33 -13 43
-6 14 -2 17 25 17 27 0 32 -3 27 -20 -3 -11 -2 -20 3 -20 8 0 6 -29 -5 -72 -6
-23 -4 -26 14 -21 12 3 21 9 21 14 0 19 27 8 40 -16 7 -14 17 -25 21 -25 5 0
6 -7 2 -16 -4 -12 -7 -13 -14 -3 -11 19 -19 7 -12 -19 3 -12 12 -22 19 -22 8
0 14 -4 14 -10 0 -27 -42 7 -46 37 -2 9 -8 21 -14 27 -9 8 -11 6 -7 -9 3 -11
8 -35 12 -52 4 -18 13 -33 20 -33 9 0 12 -6 8 -17 -5 -12 -2 -15 10 -10 9 3
17 3 17 -2 0 -21 31 -81 40 -76 5 3 2 18 -6 33 -7 15 -14 35 -14 45 0 9 -4 17
-10 17 -22 0 -8 16 15 18 15 1 25 -3 25 -12 0 -7 9 -21 20 -31 21 -19 28 -41
8 -29 -7 4 -8 3 -4 -5 4 -6 11 -9 15 -7 4 3 14 -4 21 -15 15 -19 30 -25 30
-11 0 4 -15 23 -33 43 -35 38 -64 95 -53 106 3 3 6 1 6 -6 0 -7 6 -11 14 -8
10 4 16 -5 21 -31 4 -20 10 -31 12 -24 3 6 12 12 21 12 8 0 12 -3 9 -7 -4 -3
11 -19 32 -35 21 -15 44 -41 51 -58 7 -16 16 -30 21 -30 13 0 39 -56 31 -65
-4 -5 1 -5 10 -2 18 6 42 -15 30 -28 -4 -4 7 -5 24 -2 23 4 33 1 42 -14 7 -11
10 -24 7 -29 -4 -6 10 -10 32 -10 48 0 130 -38 137 -64 4 -14 2 -16 -7 -7 -13
13 -27 14 -27 2 0 -18 33 -21 56 -6 23 15 36 43 14 30 -5 -3 -10 1 -10 9 0 10
9 16 21 16 17 0 20 -4 15 -24 -5 -20 -1 -26 16 -32 28 -9 49 -29 40 -39 -4 -5
-2 -5 5 -2 6 4 10 19 8 33 -2 18 1 22 8 15 6 -6 19 -11 28 -11 10 0 21 -5 25
-12 5 -7 0 -9 -14 -6 -15 4 -23 0 -28 -14 -7 -23 0 -33 16 -23 9 6 9 9 0 15
-8 5 2 8 24 8 30 0 37 -4 42 -24 3 -13 10 -21 15 -18 5 2 18 0 29 -6 16 -8 24
-8 35 4 16 16 21 51 6 41 -10 -6 -26 13 -18 21 8 8 57 -7 57 -18 0 -5 -4 -6
-10 -3 -16 10 -12 -11 5 -25 10 -8 15 -9 15 -2 0 6 7 9 15 6 8 -4 15 -10 15
-15 0 -4 -6 -6 -13 -3 -8 3 -20 -2 -27 -11 -14 -17 -35 -21 -24 -3 4 7 3 8 -5
4 -9 -6 -9 -11 0 -22 9 -11 8 -14 -3 -14 -8 0 -18 3 -22 7 -10 10 -66 13 -66
3 0 -15 33 -21 42 -8 5 9 8 9 8 1 0 -6 -7 -19 -16 -28 -21 -20 -9 -33 16 -18
14 10 21 9 30 -2 7 -8 16 -13 20 -10 9 5 20 -18 20 -42 0 -11 -3 -13 -13 -5
-8 7 -18 7 -27 2 -8 -5 -17 -7 -21 -4 -4 2 -12 -2 -18 -9 -8 -11 -1 -12 42 -7
37 5 58 3 72 -6 28 -20 41 -17 22 4 -10 10 -17 24 -17 30 0 7 -9 17 -20 24
-26 17 -26 31 1 23 12 -4 28 -8 35 -9 21 -3 29 -16 11 -16 -10 0 -17 -5 -17
-10 0 -10 44 -7 93 7 9 2 17 0 17 -6 0 -5 -8 -12 -17 -14 -11 -3 -7 -5 10 -6
16 0 26 3 23 8 -3 5 5 8 19 7 26 -1 36 -16 10 -16 -8 0 -15 -3 -15 -8 0 -4 17
-7 38 -6 20 1 42 -2 48 -7 6 -5 27 -10 47 -11 20 -2 37 -6 37 -9 0 -3 13 -6
30 -5 16 1 30 4 30 9 0 4 7 7 15 7 22 0 18 -18 -5 -25 -22 -7 -27 -25 -7 -25
6 0 22 -3 35 -6 17 -5 22 -2 22 12 0 16 2 17 10 4 6 -9 10 -10 10 -3 0 6 9 15
20 18 11 4 18 11 15 16 -4 5 1 9 9 9 19 0 21 -21 4 -39 -11 -10 -3 -11 39 -6
29 3 60 2 69 -3 23 -13 54 -4 47 14 -3 9 1 14 12 14 9 0 13 -4 10 -10 -3 -5
-3 -10 2 -11 60 -7 93 -7 93 1 0 6 9 10 19 10 11 0 32 5 48 12 15 6 32 10 37
9 5 -1 31 5 58 14 48 15 74 13 63 -6 -4 -5 -1 -9 4 -9 6 0 11 5 11 10 0 6 7
10 15 10 8 0 15 5 15 10 0 6 -5 10 -11 10 -5 0 -7 5 -3 12 5 8 11 6 19 -5 7
-10 19 -17 28 -17 24 0 29 -16 11 -34 -14 -15 -14 -16 4 -16 23 0 44 23 40 43
-2 9 14 27 35 41 37 25 38 25 32 5 -5 -16 -3 -20 6 -16 8 2 13 10 11 16 -3 15
11 14 26 -1 10 -10 17 -10 34 1 18 11 23 11 33 -3 13 -17 60 -22 69 -7 3 4 -7
6 -22 4 -26 -4 -26 -4 -7 12 13 11 19 25 17 45 -3 23 1 30 15 32 33 2 38 3 49
11 7 4 17 -5 24 -23 13 -31 24 -37 35 -20 3 6 -1 10 -9 10 -20 0 -21 16 -1 24
8 3 19 -2 24 -12 9 -16 11 -16 28 1 10 10 13 17 5 17 -7 0 -12 5 -12 11 0 6 7
8 17 5 9 -4 31 4 54 20 22 15 45 24 54 20 9 -3 14 -2 11 2 -6 11 30 42 49 42
7 0 17 5 20 10 3 6 14 10 25 10 33 0 31 28 -3 36 l-32 7 34 14 c30 13 49 17
97 22 6 0 24 12 39 25 15 13 35 22 43 19 7 -3 18 0 23 8 14 23 10 32 -6 15
-14 -14 -18 -14 -34 1 -11 9 -17 22 -14 30 3 8 8 11 11 9 3 -3 12 -1 19 6 11
9 16 9 23 -2 7 -11 16 -11 49 -1 23 6 41 17 41 22 0 7 -7 8 -17 4 -35 -15 -61
-17 -67 -6 -12 18 4 34 20 20 11 -9 14 -8 14 5 0 9 -4 16 -10 16 -5 0 -10 5
-10 10 0 6 13 10 30 10 29 0 70 32 70 55 0 6 15 26 34 45 26 27 32 39 25 52
-8 14 -6 16 8 11 31 -11 35 -15 22 -24 -10 -6 -11 -11 -3 -19 7 -7 19 0 40 22
16 18 21 26 11 19 -22 -18 -38 -4 -31 27 5 15 14 22 31 22 22 0 24 2 13 15
-10 12 -10 15 3 15 22 0 31 -18 16 -36 -6 -8 -10 -17 -7 -20 3 -2 13 7 22 20
14 23 14 26 0 40 -14 15 -13 16 7 16 18 0 19 2 9 15 -10 13 -9 15 9 15 12 0
21 -6 21 -15 0 -8 6 -12 14 -9 8 3 16 0 19 -8 2 -7 2 -3 1 9 -2 12 0 24 5 27
5 3 7 16 3 29 -5 20 -4 21 11 8 14 -11 17 -11 18 0 1 8 1 18 0 22 -1 4 7 22
16 40 l18 32 5 -40 5 -39 28 58 c19 38 27 66 23 82 -5 19 -3 22 10 17 13 -5
15 0 12 28 -1 19 2 34 7 34 6 0 9 -4 7 -8 -3 -9 49 -59 56 -53 2 3 -3 15 -12
28 -9 12 -16 33 -16 45 0 13 -4 23 -9 23 -5 0 -12 16 -15 36 -4 19 -14 38 -21
41 -8 3 -13 8 -11 12 3 4 -10 5 -28 3 -29 -3 -32 -7 -28 -29 3 -19 1 -24 -7
-19 -7 5 -11 18 -9 30 1 12 -8 39 -20 60 -13 21 -22 40 -20 41 2 2 19 -3 38
-11 25 -11 31 -17 21 -23 -7 -5 -10 -14 -7 -20 9 -14 59 -14 72 -1 7 7 14 -2
23 -30 6 -22 16 -40 22 -40 6 0 8 -4 4 -9 -3 -5 -1 -12 5 -16 6 -4 8 -10 5
-15 -3 -5 -1 -11 5 -15 5 -3 10 -15 10 -26 0 -10 5 -19 10 -19 13 0 13 43 -1
57 -7 7 -6 15 5 26 9 8 15 30 14 51 -1 41 7 55 24 38 15 -15 32 -16 23 -2 -3
6 -2 10 4 10 5 0 15 -8 21 -17 6 -10 9 -11 6 -3 -3 8 -9 23 -12 33 -4 9 -10
17 -15 17 -5 0 -9 10 -9 23 1 20 2 19 17 -8 16 -30 16 -30 26 -7 6 12 16 22
23 22 8 0 11 6 7 16 -4 12 0 14 21 8 16 -4 26 -2 26 5 0 6 -4 11 -10 11 -5 0
-7 7 -4 15 4 10 0 15 -16 15 -17 0 -20 4 -15 20 7 22 -14 120 -26 120 -9 0 1
-52 13 -67 5 -7 7 -22 3 -33 l-7 -22 -15 21 c-16 23 -38 29 -30 8 3 -8 1 -20
-5 -28 -8 -11 -9 -10 -4 4 3 9 2 17 -3 17 -7 0 -11 15 -12 53 0 12 -5 17 -14
13 -16 -6 -20 7 -29 83 -4 39 -26 84 -26 54z"/>
<path d="M9512 13949 c-27 -8 -31 -13 -22 -24 16 -19 1 -24 -63 -24 -49 1 -57
4 -57 20 0 10 -7 19 -15 19 -15 0 -40 -38 -31 -47 3 -3 8 2 12 11 8 22 21 20
27 -4 4 -15 14 -20 37 -20 19 0 29 -4 25 -10 -8 -13 -78 -10 -87 4 -4 6 -8 1
-8 -12 0 -12 -6 -24 -12 -26 -72 -20 -96 -31 -111 -52 -15 -21 -16 -24 -2 -24
21 0 19 -19 -2 -27 -10 -3 -37 -20 -60 -36 -28 -20 -47 -27 -62 -22 -14 4 -21
2 -21 -7 0 -8 -4 -6 -11 5 -5 9 -7 22 -4 27 8 13 45 13 45 0 0 -21 28 -9 34
15 4 14 14 25 22 25 10 0 14 6 10 15 -3 10 1 15 12 15 13 0 14 2 4 9 -8 4 -13
12 -13 17 2 14 -50 17 -63 4 -8 -9 -3 -10 22 -5 18 4 32 3 32 -3 0 -16 -43
-22 -60 -8 -16 13 -50 11 -50 -4 0 -5 7 -6 17 -3 10 4 14 2 9 -5 -3 -6 -29
-11 -57 -10 -39 0 -49 3 -45 14 6 14 -18 15 -41 1 -7 -4 -17 0 -23 10 -9 14
-10 15 -7 2 7 -22 -11 -39 -40 -39 -13 0 -23 -5 -23 -11 0 -6 9 -8 20 -4 16 5
20 2 20 -14 0 -26 -8 -26 -36 0 -12 12 -27 20 -33 18 -6 -2 12 -20 38 -39 27
-19 52 -44 56 -55 6 -19 6 -19 17 3 6 12 17 22 25 22 15 0 18 -16 3 -25 -5 -3
-7 -12 -3 -20 4 -11 1 -13 -11 -9 -12 5 -15 2 -10 -10 3 -9 2 -16 -4 -16 -6 0
-13 6 -15 13 -3 7 -6 5 -6 -5 -1 -12 -7 -16 -18 -12 -10 2 -7 -1 7 -8 14 -7
28 -17 32 -23 4 -5 8 0 8 13 0 18 6 22 29 22 16 0 34 -7 41 -15 7 -8 19 -15
26 -15 8 0 14 -5 14 -11 0 -6 7 -3 16 5 8 9 28 16 43 16 15 0 33 6 40 13 11
10 13 10 7 0 -4 -8 -1 -13 8 -13 9 0 13 6 10 14 -3 8 3 16 15 19 12 3 25 16
30 29 11 30 44 60 41 37 -6 -37 1 -49 25 -49 32 0 32 -12 0 -27 -15 -6 -22 -7
-19 -1 4 6 -1 8 -15 3 -12 -4 -21 -2 -21 4 0 6 5 11 11 11 5 0 7 5 4 10 -10
17 -25 1 -25 -26 0 -17 4 -23 12 -18 7 5 9 2 6 -7 -5 -12 1 -14 26 -11 17 3
34 10 38 16 4 6 32 11 62 11 30 0 58 4 62 8 4 4 -5 7 -19 7 -17 0 -27 5 -27
14 0 9 8 13 23 9 21 -4 21 -4 3 11 -12 9 -25 12 -35 7 -11 -5 -22 -2 -33 10
-18 19 -7 36 15 22 6 -4 23 -9 37 -10 59 -6 89 -16 92 -31 2 -12 10 -9 36 13
24 20 30 30 21 36 -9 5 -4 10 14 14 15 4 24 11 21 16 -3 5 -1 9 5 9 5 0 14 -8
20 -17 11 -20 10 -21 40 30 13 20 26 35 31 32 4 -3 13 2 20 10 9 10 9 15 1 15
-6 0 -11 -5 -11 -11 0 -5 -5 -7 -10 -4 -16 10 -3 23 30 30 41 9 38 25 -5 25
-19 0 -35 -4 -35 -10 0 -5 -7 -10 -15 -10 -8 0 -24 -9 -36 -21 -12 -12 -27
-18 -38 -14 -12 3 -21 0 -25 -10 -3 -8 -14 -15 -25 -15 -14 0 -18 -5 -14 -20
4 -14 0 -20 -11 -20 -9 0 -13 6 -10 14 10 25 -34 14 -47 -12 -8 -14 -20 -22
-33 -20 -12 1 -27 -1 -33 -5 -8 -5 -13 -3 -13 6 0 19 22 27 49 20 21 -5 31 12
10 19 -7 2 -7 11 0 28 9 24 10 24 10 3 1 -24 15 -31 26 -13 3 6 18 10 32 10
13 0 35 8 48 18 21 17 21 19 7 30 -16 10 -16 11 0 11 9 1 28 12 42 26 14 14
30 25 36 25 5 0 10 5 10 10 0 6 7 10 15 10 11 0 12 -5 5 -25 -6 -16 -6 -25 0
-25 6 0 10 9 10 20 0 16 7 20 33 20 19 0 27 3 20 8 -9 6 1 14 30 27 23 10 49
25 57 33 12 13 11 14 -10 7 -14 -4 -27 -11 -30 -15 -10 -15 -149 -38 -155 -26
-3 7 -7 7 -11 -2 -5 -10 -11 -9 -27 5 -11 10 -17 12 -13 6 5 -9 2 -11 -8 -7
-18 7 -11 24 10 24 8 0 14 5 14 10 0 6 -1 10 -2 9 -2 0 -18 -5 -36 -10z"/>
<path d="M8545 12455 c2 -85 15 -186 44 -345 53 -290 59 -331 67 -415 4 -38 9
-74 12 -80 7 -10 10 -43 13 -130 1 -27 7 -57 14 -65 19 -22 28 -60 16 -60 -6
0 -11 -16 -11 -35 0 -19 4 -35 8 -35 5 0 8 -14 7 -31 -1 -21 5 -36 23 -50 14
-10 21 -19 16 -19 -4 0 -3 -5 4 -12 16 -16 15 -28 -3 -28 -11 0 -14 -18 -12
-95 1 -52 7 -99 13 -105 5 -5 41 -19 79 -29 37 -11 72 -26 77 -35 5 -9 13 -14
18 -11 5 3 11 1 15 -5 3 -5 2 -10 -4 -10 -6 0 -8 -7 -5 -15 5 -11 11 -12 25
-4 22 11 27 -9 7 -29 -14 -14 6 -67 22 -57 6 3 10 1 10 -4 0 -6 -5 -11 -11
-11 -8 0 -9 -14 -5 -42 8 -49 9 -50 37 -52 12 0 24 -7 27 -14 2 -7 0 -12 -5
-11 -32 6 -44 -2 -41 -28 2 -16 8 -27 15 -26 7 2 10 -3 7 -11 -3 -8 0 -17 6
-21 7 -4 14 2 17 14 6 25 16 27 34 5 11 -13 10 -15 -3 -12 -9 1 -17 -1 -16 -6
0 -5 -6 -12 -12 -16 -25 -16 -1 -29 35 -19 39 11 59 4 51 -17 -3 -8 0 -11 8
-8 7 3 21 -4 31 -16 10 -11 24 -20 32 -20 7 0 13 -4 13 -8 0 -9 62 -47 73 -44
4 1 7 -3 7 -8 0 -6 12 -15 26 -20 26 -10 27 -18 10 -60 -4 -9 11 -33 40 -65
26 -27 41 -42 34 -33 -6 9 -9 22 -5 28 3 5 -1 10 -9 10 -18 0 -21 15 -7 25 6
3 15 -4 21 -15 6 -11 8 -20 4 -20 -4 0 1 -9 12 -21 14 -15 15 -22 6 -28 -9 -6
-8 -12 7 -25 15 -14 19 -14 24 -3 3 8 0 20 -6 26 -8 8 -8 11 1 11 11 0 16 -14
13 -34 -1 -5 4 -6 12 -3 13 5 51 -36 72 -77 7 -13 19 -20 31 -18 10 2 29 4 41
5 33 3 47 21 28 37 -8 7 -15 18 -15 24 0 6 7 3 14 -7 12 -15 14 -15 19 -3 4 9
2 18 -4 22 -6 3 -8 13 -4 22 3 9 3 13 -1 9 -8 -8 -34 11 -34 24 0 11 42 7 56
-6 7 -5 9 -14 6 -19 -3 -5 0 -6 7 -2 9 6 8 13 -4 29 -26 36 -29 49 -17 68 17
26 15 37 -2 13 -8 -10 -18 -15 -22 -11 -5 4 -2 12 6 17 19 12 8 22 -14 14 -11
-4 -16 -14 -13 -25 6 -24 -12 -25 -20 -1 -3 9 -13 25 -21 35 -9 10 -11 17 -4
17 6 0 14 -4 17 -10 8 -13 35 -13 35 -1 0 5 -6 16 -14 23 -7 8 -13 25 -11 39
1 13 -6 38 -16 56 -11 19 -14 35 -8 38 5 4 9 1 9 -4 0 -6 5 -11 10 -11 19 0
10 19 -27 55 -38 37 -34 47 6 18 31 -21 17 4 -16 30 -26 21 -32 53 -8 43 18
-6 20 10 3 20 -6 4 -17 -1 -24 -10 -12 -17 -13 -17 -22 1 -5 10 -12 31 -16 47
-7 27 -6 28 10 15 13 -10 16 -10 10 -1 -11 19 -15 62 -5 56 14 -8 10 6 -5 22
-20 19 -25 18 -19 -6 3 -11 0 -20 -6 -20 -6 0 -11 5 -11 11 0 6 -7 9 -15 5
-18 -6 -20 5 -3 22 8 8 8 15 -2 29 -12 15 -12 16 0 6 23 -21 35 -15 15 7 -18
20 -18 21 1 14 18 -6 18 -6 -1 9 -18 14 -21 14 -27 -1 -8 -21 -10 0 -2 22 3 9
10 13 15 10 5 -3 9 -1 9 4 0 5 -9 12 -19 15 -15 4 -18 1 -14 -12 5 -13 2 -12
-16 4 -18 15 -24 16 -30 6 -6 -9 -8 -5 -8 13 0 21 2 24 13 15 8 -7 17 -9 21
-6 10 10 -18 37 -38 37 -21 0 -26 16 -7 22 8 3 6 13 -8 31 -22 30 -34 34 -34
11 0 -8 4 -13 9 -10 5 3 11 -1 15 -9 7 -20 -3 -19 -25 1 -15 13 -16 20 -6 35
10 16 8 21 -11 35 -12 8 -22 21 -21 27 3 26 -2 37 -16 37 -8 0 -15 9 -15 21 0
11 -4 17 -10 14 -6 -3 -10 5 -10 18 0 16 -10 31 -27 43 -36 23 -53 40 -53 52
0 6 -4 12 -8 14 -14 5 -57 82 -54 96 2 6 -5 12 -15 12 -12 0 -14 3 -6 8 8 5 3
17 -17 40 -16 19 -34 49 -40 68 -6 19 -18 34 -25 34 -7 0 -19 16 -25 35 -6 19
-17 41 -23 48 -15 15 -51 90 -49 100 1 4 -2 7 -7 7 -12 0 -62 100 -55 111 3 5
-1 9 -9 9 -14 0 -37 40 -37 64 0 8 -7 17 -16 20 -8 3 -13 10 -10 14 3 5 -6 20
-20 35 -13 14 -24 38 -24 52 0 14 -4 25 -8 25 -12 0 -40 62 -47 106 -11 66
-15 73 -32 67 -12 -5 -15 -2 -10 10 3 9 3 17 -2 17 -5 0 -11 8 -14 18 -26 86
-50 188 -57 242 -7 54 -8 45 -5 -55z"/>
<path d="M12995 12228 c-10 -35 -23 -70 -30 -78 -7 -8 -20 -33 -29 -54 -13
-32 -14 -41 -4 -49 9 -6 8 -7 -4 -3 -19 6 -36 -12 -21 -23 15 -11 8 -36 -10
-34 -12 0 -16 -4 -13 -13 3 -8 -1 -17 -9 -20 -10 -4 -12 -15 -8 -35 4 -24 2
-29 -13 -29 -14 0 -15 -3 -6 -12 17 -17 15 -58 -3 -58 -9 0 -12 -6 -9 -15 4
-8 1 -15 -5 -15 -6 0 -11 -5 -11 -11 0 -6 7 -9 15 -6 8 4 17 2 20 -4 4 -5 1
-8 -7 -7 -9 2 -13 -11 -13 -46 0 -52 -21 -77 -32 -36 -4 16 -8 18 -14 8 -5 -7
-9 -20 -9 -28 0 -12 2 -13 9 -1 7 11 11 9 21 -9 10 -18 9 -21 -1 -18 -15 5
-39 -14 -39 -31 0 -6 5 -11 10 -11 6 0 10 7 10 16 0 8 4 12 10 9 14 -8 -12
-46 -27 -41 -7 3 -15 1 -18 -3 -3 -5 2 -11 10 -14 8 -4 12 -15 10 -27 -5 -28
-15 -41 -25 -35 -18 11 -22 -19 -5 -32 11 -7 13 -13 7 -13 -7 0 -21 -9 -31
-19 -23 -23 -36 -126 -18 -138 7 -5 0 -10 -17 -13 -17 -3 -28 -9 -26 -15 3 -5
11 -8 20 -7 11 3 12 1 3 -8 -6 -7 -9 -19 -6 -26 3 -8 -2 -17 -12 -20 -23 -9
-40 -55 -23 -66 9 -5 9 -8 1 -8 -13 0 -35 -58 -27 -71 3 -5 -2 -12 -10 -15 -9
-3 -16 -10 -16 -16 0 -5 5 -6 10 -3 6 3 10 2 10 -4 0 -5 -5 -11 -11 -13 -6 -2
-12 -21 -14 -42 -1 -21 -6 -41 -11 -44 -5 -4 -10 -27 -12 -51 -1 -25 -7 -50
-11 -55 -5 -6 -11 -23 -15 -38 -6 -25 -4 -27 26 -25 18 1 38 6 44 10 7 4 25 0
40 -8 16 -8 38 -15 49 -15 11 0 51 -8 88 -19 l67 -18 0 36 c1 65 7 185 14 251
4 36 9 99 11 140 2 41 9 117 15 168 5 52 7 104 4 118 -3 13 -2 24 2 24 5 0 10
10 11 23 0 12 6 57 11 101 6 43 8 84 6 91 -3 7 -1 16 5 20 6 3 11 22 11 42 0
20 4 50 9 67 5 17 14 60 20 96 6 36 17 103 26 150 9 47 17 117 18 157 2 40 6
76 10 79 10 10 9 24 -1 24 -5 0 -16 -28 -27 -62z"/>
<path d="M11774 9958 c3 -10 1 -18 -5 -18 -6 0 -8 -4 -5 -8 2 -4 1 -14 -5 -22
-7 -13 -9 -12 -9 3 0 9 -2 17 -4 17 -2 0 -11 3 -20 6 -11 4 -16 0 -16 -12 0
-11 -7 -28 -15 -38 -27 -36 12 -51 49 -18 l20 17 -20 -35 c-12 -20 -24 -48
-28 -63 -6 -25 -26 -30 -26 -6 0 6 5 7 10 4 6 -3 10 -1 10 4 0 17 -18 13 -40
-9 -11 -11 -17 -20 -14 -20 4 0 0 -8 -7 -17 -12 -15 -12 -16 3 -10 21 8 35
-10 19 -26 -16 -16 -13 -27 6 -20 10 4 14 2 9 -5 -3 -6 -3 -13 2 -16 4 -2 9 9
10 26 2 17 -3 35 -10 39 -7 4 -9 11 -5 16 5 4 12 1 17 -7 11 -17 26 -6 32 25
4 17 7 16 18 -10 10 -22 14 -26 17 -13 2 9 10 19 18 22 10 3 12 0 8 -12 -6
-14 -4 -15 8 -5 9 7 24 39 34 70 9 32 22 66 27 76 7 14 5 24 -8 38 -21 24 -33
24 -51 2 -8 -10 -12 -13 -9 -7 3 6 -2 20 -10 30 -14 17 -15 17 -10 2z"/>
<path d="M10830 9015 c-6 -16 -14 -23 -25 -19 -8 3 -15 1 -15 -5 0 -6 7 -11
15 -11 8 0 15 -4 15 -8 0 -17 -13 -21 -33 -10 -16 8 -23 7 -33 -6 -7 -11 -15
-13 -18 -7 -4 6 -14 7 -23 4 -11 -4 -14 -3 -9 5 12 20 -19 14 -38 -7 -11 -12
-14 -21 -7 -26 6 -3 11 -1 11 4 0 14 23 14 37 0 14 -14 6 -39 -12 -39 -7 0
-15 -10 -19 -22 -5 -21 -9 -19 -56 32 l-51 55 61 -84 c33 -47 60 -90 60 -98 0
-20 20 -16 44 10 11 12 35 32 51 44 25 19 28 24 15 33 -12 9 -11 10 6 6 14 -4
29 3 49 24 17 17 23 30 15 30 -10 0 -9 5 3 18 22 25 21 32 -4 32 -19 0 -20 2
-8 17 11 13 11 17 1 21 -10 3 -10 7 -1 18 9 11 8 14 -5 14 -9 0 -21 -11 -26
-25z"/>
<path d="M4913 4583 c2 -11 34 -53 72 -93 87 -89 114 -133 147 -240 34 -113
40 -209 26 -450 -3 -52 -4 -77 -2 -55 2 22 9 69 15 105 6 36 13 79 15 95 2 17
6 47 10 67 3 21 3 46 0 55 -4 10 -9 49 -12 88 -7 112 -13 154 -25 176 -9 17
-8 24 2 31 11 7 11 11 2 15 -7 2 -13 18 -13 34 0 62 -98 149 -185 164 -22 4
-43 12 -48 18 -4 7 -6 3 -4 -10z"/>
<path d="M15993 3913 c-13 -37 -26 -86 -29 -108 -4 -22 -11 -46 -17 -52 -5 -7
-7 -13 -3 -13 3 0 -1 -16 -9 -36 -8 -20 -13 -40 -10 -44 3 -5 1 -11 -5 -15 -6
-4 -8 -10 -5 -15 3 -5 1 -17 -4 -27 -5 -10 -15 -43 -22 -75 -14 -65 -8 -139
22 -273 12 -49 21 -106 21 -125 0 -19 3 -39 6 -45 9 -15 10 -45 0 -45 -4 0 -5
-25 -2 -56 5 -39 3 -58 -5 -64 -10 -5 -9 -15 3 -44 14 -33 14 -38 0 -43 -10
-4 -12 -9 -4 -18 8 -9 7 -21 -2 -41 -10 -21 -10 -28 -1 -31 10 -4 10 -11 -1
-31 -9 -19 -11 -45 -7 -85 4 -31 4 -63 -1 -70 -4 -6 -5 -19 -3 -28 3 -9 -4
-37 -15 -62 -12 -26 -18 -52 -15 -58 4 -5 0 -20 -8 -33 -11 -16 -12 -27 -5
-34 6 -6 6 -12 -1 -16 -6 -4 -11 -20 -11 -37 0 -16 -4 -29 -8 -29 -4 0 -9 -14
-10 -32 -2 -17 -6 -36 -11 -42 -4 -6 -14 -40 -21 -76 -14 -74 -28 -127 -41
-152 -5 -10 -6 -24 -3 -33 4 -9 -1 -41 -11 -71 -9 -30 -14 -65 -11 -77 3 -12
-2 -43 -10 -67 -9 -25 -16 -82 -17 -127 -1 -46 -4 -83 -7 -83 -11 0 -12 -291
-1 -304 7 -8 13 -31 14 -52 1 -22 6 -45 11 -52 4 -7 3 -19 -4 -26 -7 -9 -7
-15 -1 -18 6 -1 11 -22 12 -46 2 -24 7 -45 11 -48 4 -3 6 -25 3 -49 -5 -40 -4
-44 12 -39 11 4 14 3 7 -3 -17 -12 -22 -59 -6 -55 8 1 12 -10 12 -32 0 -19 -6
-37 -12 -39 -10 -4 -10 -7 -1 -14 13 -10 12 -210 -2 -232 -4 -7 -2 -17 3 -24
10 -13 9 -67 -3 -109 -5 -21 -4 -28 6 -28 12 0 12 -2 0 -9 -10 -7 -11 -13 -1
-30 8 -17 9 -31 1 -53 -6 -17 -9 -34 -6 -36 3 -3 -3 -14 -12 -24 -15 -17 -15
-20 -3 -28 13 -8 13 -10 0 -11 -10 0 -8 -3 5 -9 11 -5 14 -9 8 -9 -7 -1 -13
-5 -13 -11 0 -5 22 -10 49 -10 l49 0 -9 38 c-5 20 -9 57 -9 82 0 51 -9 92 -19
86 -3 -2 -6 24 -6 57 0 151 -11 367 -18 367 -4 0 -3 9 4 21 6 12 8 44 5 77 -7
72 -7 75 -1 147 3 33 10 123 16 200 6 77 12 161 14 187 7 77 62 500 71 541 5
19 2 27 -7 27 -9 0 -10 3 -4 8 13 8 28 58 51 162 9 41 21 93 27 115 6 22 11
47 12 57 0 9 3 20 8 24 4 4 7 22 7 41 0 18 5 33 11 33 7 0 9 10 7 25 -3 13 -1
26 3 27 10 3 53 115 74 188 7 25 20 62 29 84 22 52 21 64 -14 132 -22 44 -33
84 -41 154 -6 52 -15 106 -20 120 -8 23 -25 94 -50 210 -47 216 -44 390 7 567
30 104 27 130 -3 36z"/>
<path d="M5179 3445 c-4 -3 -2 -27 3 -53 18 -97 5 -385 -24 -517 -13 -61 -53
-144 -101 -211 -20 -28 -37 -58 -37 -66 0 -9 -7 -21 -15 -28 -19 -16 -20 -112
-2 -140 10 -17 9 -22 -3 -30 -10 -7 -11 -10 -2 -10 13 0 11 -47 -3 -83 -4 -9
-3 -23 2 -30 14 -19 14 -61 -3 -192 -8 -66 -17 -133 -19 -150 -1 -16 -6 -37
-10 -46 -12 -30 -38 -253 -37 -324 0 -38 12 -128 27 -200 14 -71 31 -195 36
-275 6 -80 15 -158 20 -175 7 -24 8 -18 5 30 -2 33 -1 52 1 43 2 -9 10 -16 16
-14 7 1 9 1 5 -1 -5 -3 -8 -16 -8 -29 0 -18 5 -24 17 -22 12 2 18 -4 19 -17 0
-11 6 -33 12 -48 7 -16 12 -35 12 -43 0 -15 16 -19 24 -6 3 5 -4 37 -15 73
-11 35 -18 72 -15 82 2 9 1 17 -3 17 -4 0 -8 15 -8 33 -2 61 -16 137 -25 137
-6 0 -7 8 -3 17 4 10 8 46 8 80 2 48 -2 64 -13 69 -13 5 -13 7 2 18 16 12 20
88 6 112 -4 6 -4 14 0 18 10 11 12 76 1 76 -5 0 -9 7 -9 15 0 8 5 15 11 15 7
0 9 10 7 25 -3 14 -1 28 4 31 5 3 6 15 2 26 -3 11 -1 24 5 27 8 5 8 22 2 54
-4 25 -6 49 -3 52 7 7 12 35 17 110 2 33 10 82 19 109 8 27 13 53 10 57 -2 4
0 10 5 13 5 3 7 24 6 46 -2 22 0 40 4 40 3 0 7 11 7 25 1 14 -3 25 -10 25 -6
0 3 10 19 21 17 12 22 19 13 15 -12 -3 -18 0 -18 9 0 8 5 15 10 15 6 0 10 20
10 44 0 25 4 47 9 51 9 5 11 16 12 77 0 15 5 30 10 34 8 4 7 9 -1 14 -10 6
-10 18 -3 47 6 22 8 78 5 124 -2 46 -4 91 -4 99 0 41 14 242 20 289 4 30 4
120 0 200 -6 140 -17 209 -29 196z"/>
</g>
</svg>
